<?xml version="1.0" encoding="UTF-8"?>
<svg width="142px" height="59px" viewBox="0 0 142 59" version="1.1" xmlns="http://www.w3.org/2000/svg" xmlns:xlink="http://www.w3.org/1999/xlink">
    <title>ResponsiveAyaLogo-MD</title>
    <g id="DS---Foundations-✓" stroke="none" stroke-width="1" fill="none" fill-rule="evenodd">
        <g id="Branding/AyaLogo/Primary/White" transform="translate(-32.000000, -16.000000)" fill="#FFFFFF">
            <g id="ResponsiveAyaLogo-MD" transform="translate(32.000000, 16.000000)">
                <path d="M135.745256,29.9584614 C135.469602,30.3953197 135.173777,30.8240304 134.857584,31.2434298 C134.632654,31.5414905 134.395974,31.8318887 134.148425,32.1147214 C132.538179,33.953037 130.460546,35.4678797 128.157396,36.6164754 C127.980449,36.7048364 127.801838,36.7910635 127.622051,36.8751568 L127.622051,36.8751568 C127.639971,36.8480956 127.65652,36.8198705 127.67444,36.7928094 C127.622639,36.8176397 127.571523,36.8436339 127.519819,36.8680763 C127.553994,36.8035756 127.588855,36.739269 127.621366,36.6737985 L127.621757,36.6737985 L127.622051,36.6735075 L127.622051,36.6737015 C127.683645,36.6450885 127.744063,36.6149235 127.805363,36.5857285 C127.85971,36.4996954 127.915624,36.4151171 127.968992,36.3278231 C127.991612,36.2906746 128.014624,36.2538171 128.036951,36.2163777 C128.102755,36.1072601 128.166405,35.9953298 128.230545,35.8844663 C128.276862,35.8036708 128.325432,35.7247182 128.371064,35.6429528 C128.372729,35.64014 128.374002,35.6374242 128.375569,35.6346114 C128.487691,35.4338351 128.596287,35.229664 128.70273,35.0230681 C128.711347,35.0065792 128.719572,34.9901873 128.728287,34.9736014 C128.837178,34.760798 128.942935,34.5454726 129.04546,34.3269465 C129.045754,34.3263646 129.046048,34.3256856 129.046439,34.3251037 C129.261968,33.865161 129.464179,33.3922213 129.652387,32.9081273 C129.658752,32.8915414 129.665117,32.8750526 129.671482,32.8583697 C129.854598,32.38446 130.023907,31.8996871 130.179409,31.4053118 C130.185186,31.387756 130.190572,31.3702972 130.196056,31.3529353 C130.272729,31.1079301 130.345878,30.8605969 130.415501,30.6112269 C130.420006,30.595417 130.424118,30.5795101 130.428623,30.5637002 C130.567184,30.0641842 130.69184,29.5557449 130.802297,29.0398371 C130.809348,29.0075383 130.816398,28.9750455 130.823057,28.9426497 C130.876425,28.6884301 130.927541,28.4325615 130.974152,28.1747531 C130.974838,28.1702914 130.975425,28.1660237 130.976404,28.161756 C131.021743,27.9094762 131.063654,27.6556445 131.102235,27.4002609 C131.107425,27.3679621 131.112517,27.3356633 131.117316,27.3029765 C131.155016,27.0508907 131.189191,26.797253 131.220135,26.5424514 C131.224933,26.5028781 131.229437,26.4631108 131.233844,26.4235375 C131.263906,26.1693178 131.291031,25.9141282 131.314337,25.6575807 C131.315022,25.6513732 131.315708,25.6453596 131.316295,25.639055 C131.339307,25.3811496 131.3585,25.1215953 131.374755,24.861265 C131.377987,24.8113134 131.38112,24.7614588 131.384058,24.7115073 C131.39904,24.4559297 131.411183,24.1997702 131.419506,23.9424467 C131.420779,23.908596 131.421073,23.8744543 131.422052,23.8404097 C131.429102,23.6022909 131.432921,23.3633962 131.434194,23.1239195 C131.434488,23.0806605 131.435076,23.0375954 131.435076,22.9943364 C131.435467,22.7389528 131.431942,22.4828902 131.425871,22.2260517 C131.424304,22.1717355 131.42264,22.1172252 131.421073,22.0625209 C131.413435,21.7987959 131.403153,21.5344889 131.388171,21.2696 C131.34058,20.4150882 131.248532,19.5511682 131.114084,18.6851142 C131.033591,18.1655207 130.937725,17.6454421 130.827268,17.1263335 L130.827561,17.1261395 L130.831087,17.1252666 L130.811894,17.0414643 L130.811894,17.0047038 C132.426938,16.400338 134.101422,16.0888923 135.792846,16.0888923 C136.306453,16.0888923 136.821724,16.1183783 137.33768,16.1759923 C137.532841,16.1979128 137.728001,16.2230341 137.922868,16.2531991 C138.302026,17.7046081 138.485632,19.1743489 138.479658,20.6341963 C138.479267,23.8891973 137.550369,27.0984175 135.745256,29.9584614 M126.697951,30.3854263 L126.205399,31.7196673 C126.143707,31.8794154 126.080449,32.0365447 126.015624,32.1928011 C125.997116,32.237321 125.978217,32.281356 125.959416,32.325682 C125.910552,32.4412011 125.861003,32.5559443 125.810181,32.6692326 C125.790695,32.7130736 125.771208,32.7572056 125.751427,32.8005616 C125.693947,32.927526 125.635193,33.0528414 125.575753,33.176896 C125.566842,33.1951307 125.558519,33.2137535 125.549902,33.2319882 C125.546964,33.2379048 125.543831,33.2435304 125.541285,33.249641 C125.465884,33.4042485 125.38921,33.55711 125.310578,33.7074498 L125.310578,33.7078378 C125.310284,33.7081287 125.310284,33.7084197 125.30999,33.7087107 C125.309305,33.7101656 125.308326,33.7116205 125.307738,33.7131724 C125.281495,33.763415 125.253783,33.8117177 125.227245,33.8614753 C125.17329,33.9616695 125.119922,34.0622516 125.064987,34.1605059 C125.047361,34.1918348 125.029539,34.2230666 125.011913,34.2542985 L125.011913,34.2543955 C124.937491,34.3848516 124.86209,34.5132708 124.785515,34.6399442 C124.777191,34.6540082 124.768868,34.6689452 124.760544,34.6828153 C124.757019,34.6882469 124.753886,34.6931936 124.750654,34.6983342 C124.661544,34.8438243 124.570769,34.9866955 124.478526,35.126754 C124.465111,35.1471226 124.451303,35.1669093 124.437888,35.1871809 C124.360333,35.3035729 124.281407,35.4180251 124.201502,35.5306345 C124.177902,35.5639032 124.154597,35.5970749 124.130605,35.6300527 C124.046979,35.7456688 123.96257,35.859539 123.876397,35.9709844 C123.865528,35.9854364 123.854658,36.0002764 123.843495,36.0147284 C123.746943,36.138395 123.648922,36.2590548 123.54953,36.3773867 C123.524658,36.4069697 123.4991,36.4358737 123.474227,36.4651657 C123.397162,36.5549816 123.319607,36.6430516 123.240681,36.7295697 C123.211892,36.7614805 123.182906,36.7935853 123.153823,36.8250112 C123.051885,36.9343227 122.94936,37.0416944 122.844876,37.1451864 C122.844289,37.1457683 122.843603,37.1464473 122.843016,37.1469322 C122.770455,37.2188043 122.693781,37.2885426 122.61838,37.3587658 C122.535048,37.4358755 122.45103,37.5116274 122.364759,37.5864093 C122.28554,37.6553716 122.206712,37.7249158 122.12524,37.7911623 L122.102522,37.810949 C122.069619,37.8419868 122.035444,37.868757 122.001857,37.898534 C121.896785,37.9920356 121.788482,38.0798146 121.67734,38.161871 C121.628182,38.1976616 121.580886,38.235683 121.530455,38.2699217 C121.272036,38.4448977 120.978757,38.6035789 120.657765,38.7432494 L120.637006,38.7525607 L120.585498,38.7753542 C120.557394,38.7886423 120.52929,38.8005725 120.501186,38.8130846 C120.364486,38.8266637 120.227491,38.8398548 120.090105,38.850912 C120.082761,38.5703102 120.075417,38.2845677 120.067779,37.9944604 C120.063275,37.8271468 120.059162,37.6598333 120.054951,37.4898039 C120.052111,37.3737998 120.049859,37.2567287 120.047313,37.1396577 C120.044082,36.9923248 120.041242,36.8446039 120.038696,36.695525 C120.03615,36.5679787 120.034485,36.4399474 120.032625,36.3111402 C120.03096,36.1693359 120.029393,36.0272406 120.028414,35.8841753 C120.027141,35.7511974 120.026553,35.6181225 120.026553,35.4838836 C120.025868,35.3416913 120.026553,35.1987231 120.027533,35.0554639 C120.02812,34.9206431 120.028806,34.7861132 120.030372,34.6505165 C120.032233,34.4990128 120.03615,34.3466362 120.039577,34.1942596 C120.042221,34.0665193 120.044082,33.939555 120.048292,33.8114267 C120.056224,33.5453738 120.0668,33.278448 120.080215,33.0105523 C120.080509,33.0066726 120.080803,33.0028898 120.080803,32.9991071 C120.081488,32.9888258 120.081488,32.9786415 120.082076,32.9681662 C120.097743,32.6671957 120.11723,32.3650613 120.140928,32.062539 C120.214076,31.1318874 120.328058,30.1977441 120.501186,29.275143 C120.674314,28.352639 120.906588,27.4416771 121.215437,26.5573884 C121.321194,26.25506 121.43782,25.9564174 121.562378,25.6608785 C121.904815,24.846522 122.321967,24.0609726 122.827054,23.3161604 C122.965028,23.1123773 123.109072,22.91131 123.259874,22.7136375 C123.410969,22.515868 123.568723,22.3215902 123.734507,22.1311922 C124.885494,20.8094633 126.134111,19.6957853 127.452057,18.7991784 C127.487211,19.010527 127.519232,19.2216816 127.549196,19.4327392 C127.610496,19.8673666 127.659458,20.30083 127.697158,20.7322566 C127.717918,20.9720243 127.73574,21.211113 127.748861,21.4490377 C127.770894,21.8390481 127.784016,22.2279916 127.789108,22.6154802 C127.81114,24.2972485 127.675027,25.9519557 127.389778,27.5419682 C127.215083,28.5169457 126.984768,29.4682569 126.697951,30.3854263 M118.325533,24.1617487 C117.303314,21.9661095 115.95276,20.1924884 114.649208,18.8269185 C114.495175,18.6687223 114.339967,18.5136299 114.183388,18.3612533 C114.026907,18.2087797 113.868762,18.0591189 113.709441,17.9125619 C113.435942,17.6607671 113.159016,17.4177016 112.878172,17.1833656 C112.036524,16.4802606 111.163148,15.8553322 110.264313,15.3108113 C110.270678,15.2903457 110.276749,15.2692982 110.283114,15.2488326 C111.067674,12.807897 112.213177,10.4965446 113.686723,8.37917902 C115.652528,5.5551196 117.634588,3.95075201 118.438634,3.5080742 C119.242973,3.95075201 121.22474,5.55492562 123.190838,8.37917902 C124.65606,10.4840325 125.796178,12.7803509 126.580052,15.2052825 C126.586123,15.2240992 126.592488,15.242819 126.59856,15.2618297 C126.59856,15.2618297 125.621092,15.7498034 124.27465,16.7923853 C124.271517,16.7949071 124.268285,16.7976229 124.265152,16.8001448 C124.133837,16.9037337 124.003501,17.0092625 123.873753,17.1165372 C123.762023,17.2088749 123.650783,17.3028615 123.540325,17.397915 C123.481572,17.4482546 123.423699,17.499952 123.365239,17.5511645 C123.177129,17.7165383 122.990292,17.8851128 122.805315,18.0586339 C122.772707,18.0887019 122.740784,18.1197398 122.708861,18.1501957 C122.493822,18.3540758 122.281133,18.5628056 122.071186,18.7772579 C122.057477,18.791225 122.044062,18.804998 122.030646,18.8187711 C121.800625,19.055241 121.573248,19.2976274 121.349004,19.5469974 C121.348318,19.5474824 121.347731,19.5480644 121.347437,19.5485493 C120.260002,20.7910346 119.185493,22.3212993 118.325533,24.1617487 M116.560666,38.8488752 C116.517873,38.8453834 116.475375,38.8416007 116.432582,38.8379149 C116.406045,38.8262757 116.379214,38.8154125 116.352384,38.8032883 C115.972932,38.6500387 115.630201,38.4708919 115.33369,38.2701156 C115.303334,38.249553 115.273957,38.2278265 115.244287,38.206585 C115.055491,38.0715702 114.876977,37.9226853 114.701597,37.751007 L114.676333,37.7284076 C114.462273,37.5503277 114.256243,37.3633245 114.062356,37.1730235 C114.053445,37.164391 114.043554,37.1557586 114.034545,37.1469322 C113.057763,36.1795202 112.182527,34.9480922 111.452903,33.5275271 C111.302787,33.23548 111.159036,32.9356734 111.021356,32.6286894 C110.88397,32.3216083 110.753341,32.0070587 110.62937,31.6856227 L110.62937,31.6848467 C110.55534,31.4925088 110.483759,31.2982311 110.415408,31.1022074 C110.04193,30.038966 109.747475,28.924318 109.530184,27.7754313 C109.266673,26.3828003 109.11783,24.9390537 109.090706,23.469216 C109.078269,22.8004466 109.090706,22.1262456 109.128406,21.4492317 C109.152299,21.0249827 109.188433,20.5974358 109.236023,20.168725 C109.281753,19.7567941 109.337569,19.3436023 109.404353,18.9303135 C110.340301,19.5853098 111.240508,20.3507816 112.094005,21.2229462 C112.378667,21.5139263 112.658139,21.8165457 112.931932,22.1311922 C113.115538,22.3423468 113.29033,22.558933 113.456408,22.780272 C113.622192,23.0016109 113.779652,23.2277024 113.928886,23.4579647 C114.45914,24.274843 114.887749,25.1455527 115.23185,26.0506949 C115.366299,26.4044298 115.488017,26.7633053 115.59818,27.1263516 C115.708442,27.4893008 115.806756,27.8562268 115.894985,28.2257716 C115.93905,28.410447 115.98057,28.5959954 116.019543,28.7818347 C116.270324,29.9784421 116.417209,31.1959031 116.5025,32.3944503 C116.559687,33.2001744 116.589455,33.997266 116.600618,34.7730191 C116.621966,36.2348064 116.582698,37.6209389 116.560666,38.8488752 M109.378501,37.0571164 C108.341301,36.5877654 107.343073,36.0452814 106.403012,35.434999 C106.089561,35.2314099 105.78267,35.0204492 105.482634,34.8021171 C105.306372,34.6736979 105.132559,34.5426598 104.961389,34.4090999 C103.762518,33.4742777 102.693394,32.4158859 101.808855,31.2434298 C101.49227,30.8235455 101.196151,30.3943497 100.920204,29.9570065 C99.1160701,27.0973506 98.1870743,23.8887124 98.1867806,20.6341963 C98.1810031,19.1741549 98.3647067,17.7046081 98.7435709,16.2531991 C99.0204972,16.210231 99.2978152,16.1771562 99.5744478,16.151162 C99.6309494,16.1459244 99.6871572,16.1406867 99.743365,16.136128 C100.183235,16.1002405 100.622518,16.0844306 101.06043,16.0904442 L101.062976,16.0904442 C102.142381,16.1056721 103.214051,16.2471855 104.267213,16.5106195 C104.463647,16.5598921 104.659493,16.6148874 104.854653,16.6725985 C105.101615,16.7454405 105.347598,16.8239081 105.59221,16.9102323 C105.745851,16.9645485 105.89959,17.0214837 106.052252,17.0810376 C106.052546,17.0807466 106.052546,17.0803587 106.052546,17.0799707 C106.052546,17.0795827 106.052546,17.0794857 106.052839,17.0790007 L106.049314,17.0782248 L106.04902,17.0780308 L106.073305,17.0085835 L106.04902,17.1153733 L106.049314,17.1155673 L106.052839,17.1163432 C106.052546,17.1167312 106.052546,17.1170222 106.052546,17.1171191 C106.052546,17.1176041 106.052546,17.1179921 106.052252,17.1183801 C105.793148,18.3325433 105.614928,19.5520411 105.523272,20.755244 C105.51015,20.9270193 105.498987,21.0987946 105.48939,21.269697 C105.474702,21.5319671 105.464812,21.7935582 105.456782,22.0547614 C105.455215,22.1121815 105.453257,22.1696986 105.451984,22.2270217 C105.445619,22.4831812 105.442094,22.7387588 105.442387,22.9937544 C105.442387,23.0297389 105.443073,23.0656265 105.443073,23.101611 C105.444346,23.3356561 105.448165,23.5688282 105.45453,23.8014183 C105.456194,23.8488481 105.457076,23.8961809 105.458447,23.9434166 C105.466672,24.1975393 105.478227,24.450789 105.492916,24.7031658 C105.495462,24.7497226 105.498987,24.7961825 105.501827,24.8427393 C105.5172,25.0841558 105.534435,25.3249904 105.555488,25.5647581 C105.557447,25.5855147 105.559014,25.6063682 105.56058,25.6273188 C105.583592,25.8838663 105.610423,26.1390559 105.640486,26.3932756 L105.640486,26.3935665 C105.645578,26.4386685 105.651061,26.4836734 105.656447,26.5288723 C105.71902,27.0456531 105.795106,27.5572932 105.88451,28.0622408 C105.890875,28.0970614 105.896946,28.131979 105.903017,28.1667026 C105.949041,28.4211163 105.998198,28.674172 106.050979,28.9252879 C106.053819,28.9392549 106.05705,28.952834 106.05989,28.9666071 C106.112964,29.216462 106.169172,29.4644741 106.228611,29.7106433 C106.232039,29.7256773 106.235564,29.7408083 106.239383,29.7559393 C106.300781,30.0082191 106.365606,30.258365 106.433956,30.5064741 C106.439342,30.5266487 106.445119,30.5464353 106.450603,30.566416 C106.589556,31.0663199 106.741924,31.5574944 106.907707,32.0384846 C106.914072,32.0568163 106.920437,32.0753421 106.926802,32.0937708 C107.095524,32.5789317 107.277563,33.0537144 107.473115,33.5173428 C107.477522,33.528012 107.482026,33.5385843 107.48653,33.5493506 C107.585824,33.7841716 107.688742,34.0160827 107.794792,34.2447931 C107.890855,34.451874 107.99152,34.6549782 108.093457,34.8570154 C108.230158,35.1286939 108.370678,35.3964926 108.517268,35.6585687 C108.531075,35.6831081 108.544785,35.7076474 108.558494,35.7323807 C108.67796,35.9437293 108.800951,36.1515861 108.926489,36.3561452 C108.945388,36.3866981 108.964483,36.41696 108.983676,36.4475129 C109.051047,36.5557575 109.121649,36.6605104 109.190685,36.7670091 C109.253258,36.7958162 109.315537,36.8257871 109.378501,36.8541092 C109.378501,36.8541092 109.408857,36.9136631 109.467317,37.0156032 C109.412383,36.9908699 109.357742,36.9663306 109.303394,36.9413063 C109.328658,36.9793277 109.352943,37.0191919 109.378501,37.0571164 M140.989719,14.2344757 C140.801903,13.6531944 140.316401,13.2122624 139.712313,13.0743378 L139.71202,13.0743378 C136.366577,12.3105149 133.009286,12.529041 129.85264,13.6509635 L129.85264,13.6594989 C127.172878,5.95706019 121.762631,0.626497705 118.896326,0.0522968617 C118.523239,-0.0637072276 117.981529,0.0494840535 117.981529,0.0494840535 C116.496428,0.328921998 114.489104,1.79846878 112.504792,4.08082014 C110.167467,6.76840986 108.226633,10.1784063 106.999951,13.7282672 L106.990061,13.746987 C106.993586,13.7375786 106.996817,13.7284612 106.999951,13.7190529 C103.789055,12.5385464 100.365666,12.295481 96.9544193,13.0743378 L96.9541255,13.0743378 C96.3500383,13.2122624 95.864536,13.6531944 95.6767196,14.2344757 C93.5760748,20.7291528 94.7851304,27.6275164 98.994058,33.1609891 C103.171259,38.6533365 109.72319,42.0216258 116.97018,42.4027128 L117.399474,42.4252153 L117.406525,42.4255063 L117.879885,42.4504336 C118.092378,42.459454 118.320734,42.4597449 118.559373,42.4545073 C118.7561,42.4500456 118.959976,42.4421891 119.170412,42.4302589 L119.696553,42.4027128 C119.790461,42.3976692 119.884075,42.3902007 119.977984,42.3841871 C127.112557,41.9318099 133.54943,38.5819494 137.672675,33.1609891 C141.881602,27.6275164 143.090658,20.7289588 140.989719,14.2344757" id="Fill-1"></path>
                <path d="M59.7306377,13.7850467 L51.2427075,35.7345721 L41.6022256,13.7850467 L35.7751842,13.7850467 L48.4648693,42.5468617 L46.7904989,46.9500403 C46.0551119,48.8542472 45.3306647,50.3042557 44.6186095,51.2981082 C43.9058767,52.2917649 43.0814223,52.984711 42.1466018,53.3788064 C41.2109099,53.7718249 39.9863299,53.9688726 38.4739266,53.9688726 L36.2044504,53.9688726 L36.5303209,59 L38.8611762,59 C41.1920315,59 43.1221803,58.6582745 44.6524939,57.9751172 C46.182033,57.291764 47.5107831,56.173888 48.6369049,54.6209996 C49.7630268,53.0682091 50.8710447,50.9252544 51.9620236,48.1923314 L65.4961064,13.7850467 L59.7306377,13.7850467 Z" id="Fill-4"></path>
                <polygon id="Fill-6" points="64.5977772 51.8474792 59.7897863 51.8474792 59.7897863 47.4205607 57.7906821 47.4205607 57.7906821 58.4485981 59.7897863 58.4485981 59.7897863 53.7066211 64.5977772 53.7066211 64.5977772 58.4485981 66.5968813 58.4485981 66.5968813 47.4205607 64.5977772 47.4205607"></polygon>
                <path d="M70.9004916,53.522268 C71.0990926,53.1394581 71.3769805,52.8422576 71.7335792,52.6298881 C72.0906578,52.4178104 72.4930432,52.3118689 72.9415032,52.3118689 C73.3899633,52.3118689 73.7773744,52.4026342 74.1036406,52.5834839 C74.4295229,52.7646255 74.6892688,53.0206752 74.8831663,53.3514385 C75.0106396,53.5697422 75.101637,53.8198577 75.1628779,54.0962396 L70.6915239,54.0962396 C70.7408621,53.8911663 70.8089183,53.6987399 70.9004916,53.522268 M75.0514348,51.2566367 C74.4193481,50.9049575 73.7111421,50.728972 72.926145,50.728972 C72.141052,50.728972 71.432942,50.9073896 70.8011432,51.2642248 C70.1690564,51.6214492 69.6772093,52.1154539 69.3256981,52.7462389 C68.9741868,53.3775104 68.7984311,54.0863167 68.7984311,54.8722686 C68.7984311,55.6482977 68.9765865,56.351948 69.3335691,56.982733 C69.6898799,57.6140045 70.1844146,58.1080092 70.8161174,58.4647472 C71.4483002,58.8215824 72.1718644,59 72.9875779,59 C73.945259,59 74.7555011,58.7700222 75.4183044,58.3095803 C76.0808196,57.8495274 76.5650835,57.2259413 76.8709041,56.439503 L74.9750277,56.439503 C74.7609725,56.781162 74.4933555,57.0291372 74.1721767,57.1844014 C73.8513818,57.3395683 73.4663704,57.4172004 73.0179104,57.4172004 C72.528847,57.4172004 72.1056321,57.3163175 71.7489374,57.1147465 C71.3923387,56.9131755 71.1117632,56.6207418 70.9083627,56.2379319 C70.7828093,56.0025063 70.7008348,55.7364364 70.6526484,55.4463375 L77.0080722,55.4463375 C77.018343,55.3743479 77.0286138,55.2834852 77.0387887,55.1751116 C77.0490595,55.0663489 77.0542429,54.9550568 77.0542429,54.841138 C77.0542429,54.0550887 76.8783912,53.3491037 76.526496,52.7230855 C76.1749847,52.0970673 75.6831377,51.6082186 75.0514348,51.2566367" id="Fill-8"></path>
                <path d="M82.4788005,57.1923573 C82.1606636,57.34237 81.7759624,57.4171817 81.3249867,57.4171817 C80.9037669,57.4171817 80.5860164,57.3347818 80.3706726,57.1692036 C80.1553288,57.0035282 80.0478018,56.7707265 80.0478018,56.4707012 C80.0478018,56.1706759 80.1553288,55.9378741 80.3706726,55.772296 C80.5860164,55.607107 80.9037669,55.5239287 81.3249867,55.5239287 L83.4636433,55.5239287 L83.4636433,55.6326928 C83.4636433,55.9842788 83.3787231,56.2947136 83.2098487,56.5638997 C83.0403947,56.8326967 82.796551,57.0423447 82.4788005,57.1923573 M81.9095741,50.728972 C80.9346821,50.728972 80.137456,50.9641085 79.5167364,51.4349653 C78.8959202,51.9057249 78.519141,52.549748 78.3859158,53.3670348 L80.2936744,53.3670348 C80.3650692,53.0253718 80.5372283,52.7646494 80.8093789,52.5834085 C81.0806599,52.4025566 81.437634,52.3117902 81.8786589,52.3117902 C82.3915616,52.3117902 82.7837984,52.4489613 83.0559489,52.7230117 C83.32723,52.9974511 83.4636433,53.3982631 83.4636433,53.9258368 L83.4636433,54.2050432 L81.1552428,54.2050432 C80.2111694,54.2050432 79.4758704,54.4198473 78.94751,54.8490664 C78.4187632,55.2782855 78.1550178,55.8707479 78.1550178,56.6259672 C78.1550178,57.3603676 78.4136429,57.9399885 78.9316659,58.3639542 C79.449689,58.7880171 80.1501119,59 81.0322582,59 C81.6169423,59 82.1504229,58.8859826 82.6327003,58.6588234 C83.035854,58.4684377 83.3859689,58.1936091 83.6887448,57.8437741 L83.9558715,58.7828611 L85.3100546,58.7828611 L85.3100546,53.956676 C85.3100546,52.9533813 85.0073753,52.1642097 84.4021134,51.5901341 C83.7968514,51.0161557 82.9659084,50.728972 81.9095741,50.728972" id="Fill-10"></path>
                <polygon id="Fill-12" points="88.0619918 58.4485981 89.7131542 58.4485981 89.7131542 46.8691589 88.0619918 46.8691589"></polygon>
                <path d="M94.6405564,56.351064 C94.3868578,56.100514 94.2604472,55.7300376 94.2604472,55.2393405 L94.2604472,52.2181179 L96.8525968,52.2181179 L96.8525968,50.5430741 L94.2604472,50.5430741 L94.2604472,48.5233645 L92.692643,48.5233645 L92.4419659,50.5430741 L90.8139291,50.5430741 L90.8139291,52.2181179 L92.3973275,52.2181179 L92.3973275,55.2865455 C92.3973275,56.3094529 92.6637937,57.0919186 93.1968237,57.6347278 C93.7298538,58.1774389 94.4980641,58.4485981 95.5020397,58.4485981 L96.868191,58.4485981 L96.868191,56.7267417 L95.7505726,56.7267417 C95.2639354,56.7267417 94.8942549,56.6012214 94.6405564,56.351064" id="Fill-14"></path>
                <path d="M104.719545,50.6761534 C104.241907,50.3919237 103.682157,50.2498089 103.041679,50.2498089 C102.380029,50.2498089 101.783773,50.3866749 101.253306,50.660704 C100.922581,50.8313409 100.639738,51.0536739 100.394686,51.3166111 L100.394686,46.8691589 L98.5193534,46.8691589 L98.5193534,58.4485981 L100.394686,58.4485981 L100.394686,54.4994887 C100.394686,53.9937183 100.486494,53.5514291 100.670109,53.1723241 C100.853626,52.7932191 101.106295,52.5008686 101.426336,52.2956686 C101.746773,52.0899734 102.111927,51.9873734 102.521797,51.9873734 C103.099355,51.9873734 103.545731,52.1690031 103.860925,52.5326587 C104.176118,52.8958191 104.333715,53.4407083 104.333715,54.1676233 L104.333715,58.4485981 L106.224778,58.4485981 L106.224778,53.8043639 C106.224778,53.0567506 106.0932,52.419462 105.830835,51.8928943 C105.568075,51.3663266 105.197579,50.9607793 104.719545,50.6761534" id="Fill-15"></path>
                <path d="M110.879469,52.7386508 C111.228473,52.5266705 111.623896,52.4202425 112.06535,52.4202425 C112.598962,52.4202425 113.058693,52.552256 113.443865,52.8162829 C113.82894,53.0798234 114.103676,53.4550452 114.268073,53.9410727 L116.131752,53.9410727 C115.987953,53.2998783 115.728303,52.7362187 115.353575,52.2498021 C114.97875,51.7633855 114.506255,51.3886502 113.936958,51.1246232 C113.366792,50.8609854 112.743051,50.728972 112.06535,50.728972 C111.264157,50.728972 110.54555,50.9050548 109.908754,51.2566367 C109.272345,51.6082186 108.77403,52.1022233 108.415161,52.7386508 C108.055423,53.3746892 107.87594,54.0863167 107.87594,54.8722686 C107.87594,55.658707 108.055423,56.3675133 108.415161,56.9983956 C108.77403,57.6295698 109.272345,58.1207533 109.908754,58.4724325 C110.54555,58.8240145 111.264157,59 112.06535,59 C112.753012,59 113.377139,58.8683757 113.936958,58.6043487 C114.496004,58.3408082 114.966082,57.9655864 115.346419,57.479559 C115.725982,56.9931424 115.987953,56.4347361 116.131752,55.8035619 L114.268073,55.8035619 C114.093425,56.2999014 113.816272,56.6751232 113.435935,56.9283517 C113.056372,57.1819693 112.604571,57.3087294 112.080822,57.3087294 C111.638982,57.3087294 111.241142,57.2055118 110.887012,56.9983956 C110.532882,56.7915713 110.252924,56.5015697 110.047718,56.1291692 C109.842029,55.7567686 109.739619,55.3378666 109.739619,54.8722686 C109.739619,54.4066707 109.842029,53.987866 110.047718,53.6154654 C110.252924,53.2430649 110.530077,52.9506312 110.879469,52.7386508" id="Fill-16"></path>
                <path d="M122.106463,57.1923573 C121.788344,57.34237 121.40405,57.4171817 120.952712,57.4171817 C120.531901,57.4171817 120.214168,57.3347818 119.998836,57.1692036 C119.783021,57.0035282 119.675596,56.7707265 119.675596,56.4707012 C119.675596,56.1706759 119.783021,55.9378741 119.998836,55.772296 C120.214168,55.607107 120.531901,55.5239287 120.952712,55.5239287 L123.091253,55.5239287 L123.091253,55.6326928 C123.091253,55.9842788 123.00682,56.2947136 122.837472,56.5638997 C122.668027,56.8326967 122.424583,57.0423447 122.106463,57.1923573 M121.537364,50.728972 C120.562815,50.728972 119.765245,50.9641085 119.144463,51.4349653 C118.523777,51.9057249 118.147018,52.549748 118.0138,53.3670348 L119.921842,53.3670348 C119.993233,53.0253718 120.165382,52.7646494 120.437132,52.5834085 C120.708785,52.4025566 121.065353,52.3117902 121.506354,52.3117902 C122.019229,52.3117902 122.411831,52.4489613 122.683581,52.7230117 C122.955233,52.9974511 123.091253,53.3982631 123.091253,53.9258368 L123.091253,54.2050432 L120.783364,54.2050432 C119.839341,54.2050432 119.103695,54.4198473 118.575364,54.8490664 C118.047032,55.2782855 117.782914,55.8707479 117.782914,56.6259672 C117.782914,57.3603676 118.041912,57.9399885 118.559907,58.3639542 C119.077902,58.7880171 119.7779,59 120.660386,59 C121.245038,59 121.778103,58.8859826 122.260355,58.6588234 C122.663777,58.4684377 123.013679,58.1937063 123.316535,57.8438714 L123.583841,58.7828611 L124.937951,58.7828611 L124.937951,53.956676 C124.937951,52.9533813 124.634902,52.1642097 124.030059,51.5901341 C123.424443,51.0161557 122.593545,50.728972 121.537364,50.728972" id="Fill-17"></path>
                <path d="M129.067749,51.5087544 C128.988816,51.5813949 128.915099,51.6601685 128.844532,51.7426796 L128.519056,50.728972 L127.139501,50.728972 L127.139501,58.4485981 L129.005153,58.4485981 L129.005153,54.6729253 C129.005153,53.95965 129.17729,53.4194467 129.522351,53.052603 C129.867019,52.6857593 130.379001,52.5021458 131.058592,52.5021458 L132.092988,52.5021458 L132.092988,50.728972 L131.278069,50.728972 C130.368863,50.728972 129.631795,50.98858 129.067749,51.5087544" id="Fill-18"></path>
                <path d="M134.745844,53.522268 C134.944447,53.1394581 135.221859,52.8422576 135.578941,52.6298881 C135.93564,52.4178104 136.33803,52.3118689 136.786879,52.3118689 C137.234961,52.3118689 137.622376,52.4026342 137.948646,52.5834839 C138.274532,52.7646255 138.534665,53.0206752 138.728565,53.3514385 C138.85604,53.5697422 138.947038,53.8198577 139.00828,54.0962396 L134.536586,54.0962396 C134.585925,53.8911663 134.654078,53.6987399 134.745844,53.522268 M140.371914,52.7230855 C140.020399,52.0970673 139.528546,51.6082186 138.896452,51.2566367 C138.264358,50.9049575 137.556143,50.728972 136.771521,50.728972 C135.986419,50.728972 135.278301,50.9073896 134.646111,51.2642248 C134.0144,51.6214492 133.522548,52.1154539 133.171032,52.7462389 C132.819133,53.3775104 132.643375,54.0863167 132.643375,54.8722686 C132.643375,55.6482977 132.821917,56.351948 133.178519,56.982733 C133.535218,57.6140045 134.029375,58.1080092 134.661469,58.4647472 C135.293659,58.8215824 136.017232,59 136.832571,59 C137.790647,59 138.600898,58.7700222 139.263325,58.3095803 C139.925848,57.8495274 140.410118,57.2259413 140.715942,56.439503 L138.819948,56.439503 C138.605986,56.781162 138.338366,57.0291372 138.017567,57.1844014 C137.696385,57.3395683 137.311369,57.4172004 136.863287,57.4172004 C136.373834,57.4172004 135.950999,57.3163175 135.5943,57.1147465 C135.237313,56.9131755 134.957118,56.6207418 134.753331,56.2379319 C134.627776,56.0025063 134.545801,55.7364364 134.497518,55.4463375 L140.853496,55.4463375 C140.863383,55.3743479 140.874038,55.2834852 140.884213,55.1751116 C140.894099,55.0663489 140.899187,54.9550568 140.899187,54.841138 C140.899187,54.0550887 140.723429,53.3491037 140.371914,52.7230855" id="Fill-19"></path>
                <path d="M80.1824956,37.2638875 C78.743167,37.9912591 77.0592625,38.35401 75.1283491,38.35401 C73.311013,38.35401 71.9101275,37.9617352 70.9259845,37.1755125 C69.9410629,36.3899787 69.4494781,35.3099927 69.4494781,33.9342753 C69.4494781,32.5201767 69.9507954,31.4207049 70.9543059,30.6343838 C71.9569405,29.8489484 73.3678504,29.4557879 75.1850891,29.4557879 L84.6121123,29.4557879 L84.6121123,29.8093864 C84.6121123,31.4593813 84.2331316,32.9326262 83.4762408,34.2290227 C82.7182794,35.5255175 81.620851,36.5374016 80.1824956,37.2638875 L80.1824956,37.2638875 Z M91.3721586,37.1469727 C90.215557,37.1469727 89.5944336,36.6638625 89.4958441,35.7518678 L89.4958441,23.9753562 C89.4958441,20.4008921 88.4070775,17.5329359 86.2305176,15.3717831 C84.0529844,13.2117128 81.8516068,12.1308411 78.2551831,12.1308411 C74.8852331,12.1308411 72.4546568,12.9557402 70.2780969,14.6057351 C68.1005637,16.25573 66.7661507,18.4756355 66.2745658,21.2647627 L71.5560618,21.2647627 C71.933972,19.8117909 72.7005952,18.7011985 73.8558343,17.9351505 C75.0101001,17.1691025 76.2292812,16.7860785 78.1983458,16.7860785 C80.4697969,16.7860785 81.5355949,17.4250751 82.7663576,18.7011985 C83.9962444,19.9784044 84.6121123,21.8539623 84.6121123,24.3288562 L84.6121123,25.2128032 L75.0146743,25.2128032 C71.758399,25.2128032 69.1744397,26.0186101 67.2629911,27.6290429 C65.3507639,29.2402631 64.3953315,31.4004318 64.3953315,34.1111237 C64.3953315,36.821914 65.3507639,38.98287 67.2629911,40.5933029 C69.1744397,42.2046214 71.7209292,43.0093458 74.9010969,43.0093458 C76.9826684,43.0093458 78.9329493,42.5867597 80.7502854,41.7423749 C82.2408066,41.0499399 83.542616,40.053802 84.6635969,38.7654754 C85.5420457,40.9335171 87.7710634,42.2297168 90.7800378,42.2297168 L92.9870602,42.2297168 L93.0154789,37.1469727 L91.3721586,37.1469727 Z" id="Fill-20"></path>
                <path d="M11.9145051,28.4274855 L20.3643843,9.26237472 L28.8141661,28.4274855 L11.9145051,28.4274855 Z M22.9845095,2.20560748 L17.7448438,2.20560748 L0,42.4579439 L5.72851533,42.4579439 L9.79618898,33.2333604 L30.9322874,33.2333604 L35.0000585,42.4579439 L40.7286712,42.4579439 L22.9845095,2.20560748 Z" id="Fill-21"></path>
            </g>
        </g>
    </g>
</svg>