<svg
        width="142"
        height="60"
        viewBox="0 0 142 60"
        fill="none"
        xmlns="http://www.w3.org/2000/svg">
        <path
            d="M59.7544 13.9114L51.1731 35.8253L41.4267 13.9114H35.5394L48.365 42.6256L46.6719 47.0258C46.1192 48.5566 45.3821 50.0144 44.4768 51.367C43.8532 52.2787 42.9873 52.9981 41.9767 53.4441C40.7885 53.8778 39.5276 54.0779 38.2635 54.0331H35.9634L36.2935 59.0563H38.6496C40.6509 59.1214 42.6441 58.7732 44.5048 58.0332C46.1239 57.2939 47.5168 56.1365 48.54 54.6801C49.9152 52.6841 51.0438 50.529 51.9011 48.2618L65.5827 13.9114H59.7544Z"
            fill="#01383F" />
        <path
            d="M64.8837 52.3021H60.1595V47.9219H58.1954V58.8343H60.1595V54.1421H64.8837V58.8343H66.8478V47.9219H64.8837V52.3021Z"
            fill="#01383F" />
        <path
            d="M75.2841 51.274C73.9258 50.5648 72.3059 50.5674 70.9499 51.281C70.3204 51.6272 69.8007 52.1431 69.4498 52.77C69.0867 53.4227 68.9012 54.1593 68.9118 54.9061C68.9023 55.6487 69.0908 56.3805 69.4578 57.0262C69.814 57.6529 70.3375 58.1682 70.9699 58.5143C71.6491 58.8818 72.4119 59.0672 73.184 59.0523C74.0617 59.0806 74.9268 58.8383 75.6621 58.3582C76.3362 57.8983 76.8531 57.2429 77.1431 56.4802H75.2101C75.0144 56.8025 74.7306 57.0621 74.392 57.2282C74.0221 57.393 73.6199 57.473 73.215 57.4622C72.765 57.4754 72.3192 57.372 71.9209 57.1622C71.5553 56.9585 71.2574 56.6523 71.0639 56.2812C70.933 56.0309 70.8448 55.7605 70.8029 55.4811H77.2832C77.2942 55.4091 77.3042 55.3181 77.3142 55.2091C77.3251 55.0975 77.3305 54.9853 77.3302 54.8731C77.3418 54.129 77.1561 53.3951 76.7921 52.746C76.4386 52.1227 75.9157 51.6123 75.2841 51.274ZM71.0519 53.55C71.2433 53.1752 71.5379 52.8629 71.9009 52.65C72.2761 52.4372 72.7018 52.3297 73.133 52.339C73.5446 52.3285 73.9522 52.422 74.318 52.611C74.6481 52.7913 74.9226 53.0582 75.1121 53.383C75.2459 53.6159 75.3424 53.8683 75.3981 54.1311H70.8409C70.8865 53.9293 70.9574 53.7341 71.0519 53.55Z"
            fill="#01383F" />
        <path
            d="M82.4413 50.744C81.5772 50.7065 80.725 50.9558 80.0172 51.453C79.3912 51.9208 78.9784 52.6199 78.8712 53.3941H80.8043C80.8631 53.071 81.0518 52.7862 81.3263 52.606C81.6523 52.4138 82.0273 52.321 82.4053 52.339C82.8423 52.3089 83.2727 52.458 83.5974 52.752C83.8928 53.0823 84.0418 53.5181 84.0104 53.9601V54.2401H81.6723C80.8744 54.1921 80.0843 54.4206 79.4352 54.8871C78.9 55.3212 78.603 55.9838 78.6352 56.6722C78.6058 57.3461 78.8979 57.994 79.4222 58.4183C80.0357 58.8723 80.7882 59.0983 81.5503 59.0573C82.1097 59.064 82.6636 58.9468 83.1724 58.7143C83.5822 58.5197 83.9465 58.241 84.2414 57.8962L84.5124 58.8393H85.8845V53.9861C85.9328 53.0985 85.5977 52.2328 84.9644 51.609C84.2685 51.0024 83.363 50.692 82.4413 50.744ZM83.0184 57.2362C82.6499 57.3963 82.2508 57.4734 81.8493 57.4622C81.5085 57.4859 81.1692 57.3986 80.8823 57.2132C80.6761 57.0392 80.5571 56.783 80.5571 56.5132C80.5571 56.2433 80.6761 55.9872 80.8823 55.8132C81.1691 55.6274 81.5084 55.5397 81.8493 55.5631H84.0154V55.6732C84.035 56.3509 83.6385 56.9719 83.0154 57.2392L83.0184 57.2362Z"
            fill="#01383F" />
        <path
            d="M89.9137 47.4078H88.0586V58.8343H89.9137V47.4078Z"
            fill="#01383F" />
        <path
            d="M95.1639 56.7452C94.8898 56.4444 94.7516 56.044 94.7819 55.6381V52.63H97.382V50.962H94.7819V48.9509H93.2079L92.9558 50.962H91.3218V52.63H92.9118V55.6851C92.8527 56.5405 93.1411 57.3835 93.7119 58.0232C94.3402 58.5988 95.1768 58.8919 96.027 58.8343H97.399V57.1192H96.277C95.871 57.1473 95.4706 57.0127 95.1639 56.7452Z"
            fill="#01383F" />
        <path
            d="M105.106 51.164C104.601 50.8758 104.027 50.7306 103.446 50.744C102.833 50.7345 102.226 50.8734 101.677 51.149C101.359 51.314 101.071 51.5329 100.827 51.796V47.4078H98.972V58.8393H100.827V54.9391C100.817 54.4874 100.91 54.0393 101.1 53.6291C101.263 53.2762 101.522 52.9764 101.848 52.7641C102.173 52.5606 102.549 52.4563 102.932 52.464C103.432 52.4343 103.919 52.632 104.257 53.0021C104.602 53.4665 104.768 54.0395 104.724 54.6161V58.8393H106.595V54.2511C106.614 53.6006 106.48 52.9548 106.205 52.365C105.964 51.8658 105.582 51.4482 105.106 51.164Z"
            fill="#01383F" />
        <path
            d="M111.336 52.762C111.698 52.5469 112.114 52.4364 112.536 52.443C113.032 52.4296 113.521 52.5692 113.936 52.843C114.331 53.1169 114.625 53.5144 114.77 53.9731H116.656C116.523 53.3548 116.254 52.774 115.868 52.273C115.489 51.7853 114.997 51.3974 114.435 51.143C113.125 50.5703 111.627 50.6192 110.358 51.276C109.723 51.6191 109.199 52.1351 108.845 52.764C108.478 53.4182 108.29 54.1579 108.3 54.9081C108.289 55.654 108.476 56.3895 108.842 57.0392C109.197 57.665 109.721 58.1783 110.355 58.5203C111.025 58.88 111.777 59.0625 112.538 59.0503C113.191 59.0585 113.838 58.9219 114.432 58.6503C114.989 58.3913 115.478 58.0041 115.858 57.5202C116.245 57.0253 116.517 56.4498 116.653 55.8361H114.767C114.62 56.296 114.323 56.6937 113.925 56.9662C113.516 57.2279 113.038 57.361 112.553 57.3482C112.129 57.3557 111.711 57.2489 111.343 57.0392C110.984 56.8321 110.691 56.5299 110.494 56.1662C110.077 55.3759 110.077 54.4313 110.494 53.6411C110.691 53.2784 110.982 52.9749 111.336 52.762Z"
            fill="#01383F" />
        <path
            d="M121.837 50.7439C120.973 50.7065 120.12 50.9558 119.412 51.453C118.786 51.9212 118.374 52.6201 118.267 53.394H120.2C120.259 53.071 120.447 52.7862 120.722 52.606C121.049 52.4129 121.426 52.3201 121.805 52.339C122.242 52.3087 122.673 52.4579 122.998 52.752C123.293 53.0823 123.442 53.5181 123.411 53.9601V54.2401H121.073C120.275 54.192 119.485 54.4206 118.836 54.8871C118.301 55.3212 118.004 55.9838 118.036 56.6722C118.006 57.3461 118.298 57.9939 118.823 58.4182C119.436 58.8724 120.189 59.0984 120.951 59.0573C121.51 59.0641 122.064 58.9469 122.572 58.7143C122.982 58.5197 123.347 58.241 123.642 57.8962L123.913 58.8393H125.285V53.9861C125.333 53.0984 124.998 52.2328 124.365 51.609C123.668 51.0014 122.76 50.6909 121.837 50.7439ZM122.413 57.2362C122.045 57.3964 121.645 57.4736 121.244 57.4622C120.903 57.4858 120.565 57.3985 120.278 57.2132C120.071 57.0395 119.952 56.7833 119.952 56.5132C119.952 56.2431 120.071 55.9868 120.278 55.8131C120.564 55.6275 120.903 55.5398 121.244 55.5631H123.411V55.6731C123.431 56.351 123.034 56.9721 122.411 57.2392L122.413 57.2362Z"
            fill="#01383F" />
        <path
            d="M129.367 51.757C129.288 51.8321 129.214 51.9119 129.145 51.996L128.821 50.962H127.45V58.8393H129.305V54.9891C129.262 54.393 129.445 53.8024 129.819 53.3361C130.222 52.9369 130.778 52.7307 131.343 52.77H132.371V50.962H131.561C130.754 50.9278 129.965 51.2135 129.367 51.757Z"
            fill="#01383F" />
        <path
            d="M140.833 52.747C140.482 52.1245 139.962 51.6138 139.333 51.274C137.974 50.5648 136.355 50.5674 134.999 51.281C134.369 51.6274 133.85 52.1433 133.498 52.77C133.135 53.4225 132.949 54.1592 132.96 54.9061C132.951 55.6487 133.139 56.3805 133.506 57.0262C133.862 57.6532 134.386 58.1685 135.019 58.5143C135.697 58.8817 136.46 59.0671 137.232 59.0523C138.11 59.0808 138.975 58.8385 139.711 58.3582C140.384 57.8979 140.901 57.2426 141.192 56.4802H139.259C139.063 56.8025 138.779 57.0621 138.441 57.2282C138.071 57.3929 137.668 57.4729 137.264 57.4622C136.814 57.4753 136.368 57.3719 135.97 57.1622C135.604 56.9583 135.306 56.6521 135.112 56.2812C134.981 56.0308 134.893 55.7604 134.852 55.4811H141.332C141.342 55.4091 141.353 55.3181 141.363 55.2091C141.374 55.0975 141.379 54.9853 141.379 54.8731C141.388 54.1286 141.199 53.395 140.833 52.747ZM135.097 53.547C135.288 53.172 135.582 52.8596 135.946 52.647C136.321 52.4352 136.747 52.3288 137.178 52.339C137.589 52.3284 137.996 52.4219 138.362 52.611C138.694 52.7906 138.97 53.0576 139.162 53.383C139.295 53.616 139.391 53.8684 139.447 54.1311H134.887C134.932 53.9295 135.003 53.7343 135.097 53.55V53.547Z"
            fill="#01383F" />
        <path
            d="M91.8077 37.3794C90.6447 37.3794 90.0196 36.9004 89.9206 35.9943V24.2999C90.0643 21.119 88.8743 18.0225 86.6375 15.7565C84.5628 13.5627 81.6318 12.3868 78.6162 12.5384C75.7397 12.4132 72.9077 13.2807 70.5948 14.9955C68.4351 16.5844 66.9885 18.9605 66.5687 21.6087H71.8799C72.1997 20.2514 73.027 19.068 74.192 18.3016C75.491 17.4704 77.0196 17.0711 78.5592 17.1606C80.3053 17.0288 82.0104 17.734 83.1534 19.0606C84.4887 20.6035 85.1564 22.6137 85.0094 24.6489V25.5269H75.358C72.5554 25.3751 69.7902 26.2259 67.5577 27.927C65.7235 29.5641 64.6748 31.9058 64.6748 34.3643C64.6748 36.8227 65.7235 39.1645 67.5577 40.8015C69.7507 42.4907 72.4745 43.3418 75.239 43.2016C77.2683 43.2152 79.276 42.7859 81.1223 41.9436C82.6281 41.2473 83.9693 40.2398 85.0574 38.9875C85.9405 41.1395 88.1826 42.4266 91.2087 42.4266H93.4278L93.4568 37.3794H91.8077ZM80.5552 37.4964C78.9685 38.2487 77.2277 38.6193 75.472 38.5784C73.9718 38.6748 72.4829 38.2626 71.2459 37.4084C70.2965 36.5934 69.7526 35.4028 69.7582 34.1516C69.7638 32.9003 70.3182 31.7146 71.2749 30.9081C72.5241 30.0575 74.0205 29.646 75.529 29.7381H85.0094V30.0891C85.0354 31.6288 84.6405 33.1464 83.8674 34.4783C83.0835 35.7876 81.9316 36.8373 80.5552 37.4964Z"
            fill="#01383F" />
        <path
            d="M23.0879 2.29297H17.8247L0 42.4466H5.75424L9.8404 33.2462H31.0713L35.1564 42.4466H40.9117L23.0879 2.29297ZM11.9675 28.45L20.4558 9.33226L28.9392 28.45H11.9675Z"
            fill="#01383F" />
        <path
            d="M140.998 14.3205C140.808 13.7339 140.324 13.2906 139.723 13.1534C136.455 12.3914 133.037 12.5929 129.881 13.7334L129.908 13.8074L129.947 13.9184L130.008 14.1044L130.069 14.2915V14.2975L130.194 14.6825C130.273 14.9385 130.348 15.1965 130.42 15.4535C130.51 15.7725 130.595 16.0915 130.672 16.4105L130.714 16.5945L130.766 16.8256L130.83 17.1086C132.418 16.5033 134.102 16.1913 135.802 16.1875C136.317 16.1877 136.832 16.2167 137.344 16.2745C137.538 16.2965 137.732 16.3225 137.928 16.3525C138.301 17.792 138.488 19.2736 138.484 20.7607C138.477 24.0802 137.534 27.3304 135.764 30.1381C136.523 29.0533 137.178 27.8987 137.719 26.69C137.178 27.8987 136.523 29.0533 135.764 30.1381C135.488 30.5775 135.192 31.0085 134.877 31.4312C134.652 31.7312 134.416 32.0232 134.169 32.3072C132.488 34.1898 130.458 35.7281 128.19 36.8364C128.013 36.925 127.835 37.0117 127.655 37.0964C126.231 39.9811 123.522 42.0185 120.355 42.5866C120.244 42.6066 120.133 42.6226 120.021 42.6386C126.98 42.272 133.432 38.8822 137.682 33.3592C141.856 27.9468 143.096 20.8255 140.998 14.3205Z"
            fill="url(#paint0_linear_10_2)" />
        <path
            d="M109.442 37.2824C108.413 36.8141 107.42 36.2686 106.473 35.6503C106.16 35.4503 105.854 35.2333 105.554 35.0143C105.378 34.8849 105.205 34.7516 105.034 34.6143C103.853 33.6975 102.796 32.6297 101.892 31.4381C101.576 31.0155 101.28 30.5838 101.005 30.1431C100.53 29.4677 100.096 28.7648 99.705 28.038C100.096 28.7648 100.53 29.4677 101.005 30.1431C99.2303 27.3361 98.2846 24.0847 98.277 20.7637C98.2716 19.2766 98.4582 17.7949 98.832 16.3555C99.109 16.3125 99.385 16.2795 99.662 16.2555L99.83 16.2405C100.269 16.2045 100.708 16.1892 101.145 16.1945C102.225 16.2108 103.299 16.3528 104.345 16.6175C104.545 16.6675 104.737 16.7175 104.932 16.7805C105.178 16.8535 105.423 16.9325 105.667 17.0196C105.821 17.0742 105.975 17.1316 106.127 17.1916L106.152 17.0856L106.211 16.8245L106.291 16.4735L106.306 16.4085C106.445 15.8385 106.606 15.2655 106.781 14.6965V14.6835L106.909 14.2914L107.03 13.9194H107.035C107.044 13.8934 107.053 13.8674 107.063 13.8414L107.073 13.8134C103.868 12.6134 100.38 12.3876 97.0469 13.1644C96.4457 13.3014 95.9609 13.7448 95.7709 14.3314C93.6698 20.8369 94.9083 27.9598 99.082 33.3742C103.393 38.9746 109.962 42.3797 117.024 42.6746L117.453 42.6966C114.068 42.2833 111.088 40.269 109.442 37.2824Z"
            fill="url(#paint1_linear_10_2)" />
        <path
            d="M110.35 15.3375C111.135 12.878 112.281 10.5486 113.75 8.42523C114.991 6.49438 116.603 4.82886 118.493 3.52503C120.382 4.82941 121.994 6.49482 123.236 8.42523C124.695 10.536 125.834 12.8503 126.618 15.2935C127.655 14.6719 128.748 14.1512 129.884 13.7384C127.21 5.98813 121.81 0.624909 118.949 0.0478849C118.648 -0.0159616 118.337 -0.0159616 118.036 0.0478849C116.554 0.328896 114.551 1.80796 112.57 4.10405C110.149 6.96833 108.286 10.2605 107.076 13.8104C108.211 14.2361 109.302 14.7692 110.335 15.4025L110.35 15.3375Z"
            fill="url(#paint2_linear_10_2)" />
        <path
            d="M126.615 15.2975L126.634 15.3545C126.895 16.1792 127.114 17.0166 127.29 17.8636C127.326 18.0383 127.36 18.2133 127.39 18.3886C127.421 18.564 127.452 18.7387 127.482 18.9127C127.829 18.6747 128.182 18.4527 128.54 18.2456C128.66 18.1756 128.78 18.1076 128.901 18.0456C129.048 17.9656 129.195 17.8876 129.344 17.8126C129.466 17.7506 129.589 17.6896 129.713 17.6306C130.083 17.4546 130.457 17.2943 130.835 17.1496L130.771 16.8646L130.719 16.6316L130.677 16.4456C130.6 16.1246 130.515 15.8025 130.425 15.4805C130.353 15.2215 130.278 14.9615 130.199 14.7025L130.074 14.3155V14.3085L130.013 14.1205L129.952 13.9325L129.913 13.8205L129.886 13.7465C128.749 14.1577 127.653 14.6771 126.615 15.2975Z"
            fill="#2B8C17" />
        <path
            d="M106.785 14.6895C106.607 15.2695 106.446 15.8515 106.306 16.4315L106.291 16.4965L106.211 16.8505L106.152 17.1136L106.127 17.2206L106.355 17.3156C106.622 17.4269 106.889 17.5466 107.155 17.6746C107.965 18.0665 108.74 18.5244 109.474 19.0436C109.504 18.8566 109.537 18.6686 109.574 18.4806C109.612 18.2706 109.652 18.0596 109.696 17.8496C109.74 17.6406 109.786 17.4336 109.834 17.2266C109.96 16.6932 110.101 16.1719 110.257 15.6625C110.283 15.5755 110.308 15.4885 110.336 15.4025C109.304 14.7691 108.213 14.236 107.078 13.8104L107.068 13.8384C107.058 13.8654 107.049 13.8914 107.04 13.9184H107.035L106.914 14.2944L106.787 14.6865L106.785 14.6895Z"
            fill="#EF0B06" />
        <path
            d="M116.408 39.0385C116.051 38.8963 115.71 38.7166 115.391 38.5025L115.302 38.4385C115.109 38.3 114.928 38.1469 114.76 37.9805L114.735 37.9575C114.521 37.7784 114.315 37.5904 114.122 37.3984L114.094 37.3724C113.05 36.3003 112.181 35.0713 111.518 33.7303C111.368 33.4369 111.224 33.1369 111.087 32.8302C110.949 32.5236 110.819 32.2072 110.695 31.8812C110.621 31.6872 110.55 31.4922 110.481 31.2942C110.104 30.202 109.809 29.0832 109.598 27.947C109.332 26.5177 109.185 25.0686 109.159 23.6149C109.147 22.9415 109.16 22.2641 109.197 21.5828C109.221 21.1561 109.257 20.7264 109.304 20.2937C109.35 19.8797 109.404 19.4637 109.472 19.0487C108.739 18.5287 107.963 18.0705 107.153 17.6786C106.887 17.5506 106.62 17.431 106.353 17.3196L106.125 17.2246C105.868 18.4312 105.692 19.6536 105.597 20.8838C105.584 21.0568 105.572 21.2298 105.563 21.4018C105.548 21.6658 105.538 21.9288 105.53 22.1918C105.53 22.2498 105.53 22.3068 105.53 22.3648C105.523 22.6228 105.52 22.8802 105.52 23.1369C105.52 23.1729 105.52 23.2089 105.52 23.2449C105.52 23.4809 105.52 23.7149 105.531 23.9449C105.531 23.9929 105.531 24.0449 105.531 24.0879C105.539 24.3439 105.551 24.5979 105.565 24.8519L105.574 24.9929C105.589 25.2356 105.607 25.4776 105.628 25.719L105.633 25.782C105.657 26.04 105.683 26.297 105.713 26.553L105.729 26.689C105.791 27.209 105.867 27.7234 105.956 28.2321L105.975 28.3321C106.021 28.5881 106.07 28.8431 106.122 29.0951L106.131 29.1371C106.184 29.3881 106.24 29.6371 106.3 29.8851L106.31 29.9311C106.372 30.1851 106.436 30.4362 106.505 30.6862L106.521 30.7462C106.661 31.2495 106.813 31.7432 106.977 32.2272L106.997 32.2832C107.165 32.7712 107.347 33.2486 107.542 33.7153L107.555 33.7473C107.654 33.984 107.757 34.2173 107.863 34.4473C107.963 34.6553 108.063 34.8603 108.163 35.0633C108.299 35.3364 108.44 35.6064 108.586 35.8694L108.627 35.9444C108.746 36.1564 108.869 36.3654 108.994 36.5714L109.051 36.6634C109.119 36.7724 109.189 36.8784 109.258 36.9854C109.321 37.0144 109.382 37.0444 109.445 37.0724C109.445 37.0724 109.476 37.1324 109.534 37.2354C111.73 38.2383 114.082 38.8583 116.487 39.0685L116.408 39.0385ZM108.668 34.7113C108.678 34.7553 108.689 34.7993 108.699 34.8443C108.689 34.8003 108.678 34.7563 108.668 34.7123V34.7113ZM108.76 35.1113C108.774 35.1643 108.789 35.2163 108.803 35.2693C108.789 35.2133 108.774 35.1613 108.76 35.1083V35.1113ZM108.867 35.5024L108.919 35.6684L108.867 35.5024ZM108.99 35.8854C109.01 35.9427 109.03 35.9997 109.05 36.0564C109.03 35.9977 109.01 35.9397 108.99 35.8824V35.8854ZM109.126 36.2624C109.148 36.3204 109.171 36.3774 109.195 36.4344C109.171 36.3744 109.148 36.3174 109.126 36.2594V36.2624ZM109.277 36.6314C109.302 36.6894 109.327 36.7464 109.353 36.8044C109.327 36.7434 109.302 36.6864 109.277 36.6284V36.6314ZM109.441 36.9924C109.469 37.0504 109.497 37.1084 109.526 37.1654C109.497 37.1054 109.469 37.0474 109.442 36.9894L109.441 36.9924Z"
            fill="url(#paint3_linear_10_2)" />
        <path
            d="M127.655 36.8974C127.717 36.8684 127.777 36.8384 127.838 36.8084C127.893 36.7224 127.948 36.6374 128.002 36.5494C128.024 36.5114 128.047 36.4744 128.069 36.4374C128.135 36.3274 128.198 36.2144 128.262 36.1034C128.309 36.0214 128.357 35.9423 128.403 35.8603V35.8513C128.515 35.6513 128.624 35.4463 128.73 35.2363L128.755 35.1863C128.864 34.9723 128.969 34.7563 129.072 34.5363C129.288 34.0736 129.488 33.5983 129.672 33.1102L129.692 33.0602C129.874 32.5835 130.043 32.0962 130.199 31.5982L130.215 31.5452C130.292 31.2992 130.365 31.0505 130.434 30.7991L130.447 30.7521C130.587 30.2488 130.711 29.7374 130.82 29.2181L130.841 29.1181C130.894 28.8621 130.941 28.604 130.992 28.345V28.332C131.038 28.078 131.08 27.8227 131.118 27.566L131.133 27.466C131.17 27.212 131.203 26.957 131.233 26.701L131.247 26.581C131.277 26.325 131.304 26.0689 131.327 25.8109V25.7919C131.35 25.5319 131.369 25.2709 131.386 25.0099L131.395 24.8589C131.41 24.6022 131.422 24.3442 131.43 24.0849V23.9849C131.437 23.7448 131.441 23.5048 131.442 23.2628C131.442 23.2198 131.442 23.1768 131.442 23.1328C131.442 22.8758 131.442 22.6188 131.433 22.3598C131.433 22.3058 131.433 22.2508 131.433 22.1958C131.425 21.9298 131.415 21.6638 131.4 21.3958C131.352 20.5357 131.261 19.6667 131.127 18.7956C131.047 18.273 130.951 17.7499 130.84 17.2266L130.821 17.1426C130.443 17.2866 130.069 17.4469 129.699 17.6236C129.575 17.6826 129.452 17.7436 129.33 17.8056C129.181 17.8806 129.03 17.9586 128.887 18.0386C128.766 18.1056 128.646 18.1736 128.526 18.2386C128.17 18.446 127.817 18.6683 127.468 18.9057C127.503 19.1183 127.536 19.331 127.568 19.5437C127.63 19.9804 127.679 20.416 127.716 20.8507C127.737 21.0927 127.755 21.3327 127.768 21.5728C127.79 21.9648 127.804 22.3558 127.808 22.7458C127.831 24.4068 127.698 26.0662 127.408 27.702C127.238 28.6691 127.008 29.6247 126.718 30.5631L126.226 31.9062C126.165 32.0662 126.101 32.2242 126.037 32.3822C126.018 32.4262 125.999 32.4712 125.981 32.5152C125.932 32.6322 125.881 32.7472 125.832 32.8612C125.813 32.9052 125.793 32.9492 125.773 32.9932C125.716 33.1212 125.657 33.2472 125.598 33.3722L125.572 33.4272L125.563 33.4452C125.488 33.6003 125.412 33.7543 125.333 33.9063C125.307 33.9573 125.28 34.0063 125.253 34.0553C125.199 34.1553 125.146 34.2553 125.091 34.3553L125.038 34.4503C124.964 34.5836 124.889 34.713 124.812 34.8383L124.787 34.8813L124.777 34.8963C124.688 35.0433 124.598 35.1863 124.506 35.3273L124.465 35.3883C124.388 35.5053 124.309 35.6203 124.229 35.7343L124.159 35.8343C124.075 35.9503 123.991 36.0654 123.905 36.1774L123.872 36.2214C123.776 36.3454 123.678 36.467 123.579 36.5864C123.554 36.6154 123.528 36.6444 123.503 36.6744C123.427 36.7644 123.349 36.8534 123.271 36.9404L123.184 37.0404C123.084 37.1504 122.984 37.2584 122.875 37.3624C122.802 37.4344 122.726 37.5044 122.65 37.5754C122.574 37.6464 122.483 37.7294 122.397 37.8044C122.311 37.8794 122.239 37.9434 122.158 38.0104L122.136 38.0304C122.103 38.0614 122.068 38.0884 122.036 38.1184C121.936 38.2124 121.823 38.3004 121.712 38.3834C121.663 38.4194 121.612 38.4575 121.566 38.4925C121.291 38.6773 120.999 38.8367 120.695 38.9685L120.674 38.9775L120.623 39.0005C120.595 39.0145 120.566 39.0265 120.538 39.0385C122.967 38.7953 125.335 38.1331 127.538 37.0814C127.572 37.0164 127.607 36.9524 127.638 36.8814L127.655 36.8974Z"
            fill="url(#paint4_linear_10_2)" />
        <path
            d="M124.305 16.9016C124.174 17.0016 124.044 17.1126 123.914 17.2206C123.803 17.3132 123.692 17.4076 123.581 17.5036C123.523 17.5536 123.465 17.6036 123.407 17.6576C123.219 17.8236 123.032 17.9936 122.848 18.1676L122.748 18.2606C122.534 18.4653 122.322 18.6756 122.112 18.8916L122.072 18.9326C121.842 19.1707 121.615 19.415 121.391 19.6657C120.173 21.0635 119.157 22.6259 118.375 24.3069C119.652 27.085 120.226 30.1349 120.045 33.1872L120.127 33.1982V33.1672C120.143 32.8672 120.162 32.5602 120.186 32.2562C120.256 31.3171 120.376 30.3824 120.545 29.4561C120.714 28.5283 120.953 27.6144 121.258 26.722C121.364 26.418 121.479 26.1179 121.604 25.8219C121.946 24.996 122.37 24.2058 122.867 23.4628C123.004 23.2582 123.148 23.0561 123.299 22.8568C123.449 22.6568 123.607 22.4568 123.772 22.2708C124.86 20.9985 126.107 19.8716 127.483 18.9176C127.455 18.7436 127.424 18.569 127.391 18.3936C127.359 18.2183 127.325 18.0433 127.291 17.8686C127.115 17.0216 126.896 16.1841 126.635 15.3595C125.818 15.803 125.041 16.3184 124.315 16.8996L124.305 16.9016Z"
            fill="url(#paint5_linear_10_2)" />
        <path
            d="M112.158 21.3517C112.442 21.6451 112.72 21.9498 112.994 22.2658C113.177 22.4778 113.352 22.6958 113.517 22.9188C113.682 23.1418 113.84 23.3688 113.989 23.6008C114.513 24.4218 114.949 25.296 115.289 26.2089C115.422 26.565 115.544 26.9256 115.655 27.291C115.765 27.656 115.863 28.026 115.955 28.397C115.999 28.583 116.04 28.7697 116.079 28.9571C116.321 30.1562 116.482 31.3703 116.561 32.5912C116.568 29.732 117.188 26.9076 118.381 24.3089C117.457 22.3322 116.218 20.5191 114.712 18.9406C114.558 18.782 114.403 18.626 114.247 18.4726C114.091 18.3193 113.933 18.1686 113.774 18.0206C113.5 17.7673 113.224 17.5229 112.944 17.2876C112.123 16.5944 111.251 15.9645 110.336 15.4035C110.308 15.4895 110.283 15.5765 110.257 15.6635C110.101 16.1755 109.96 16.6969 109.834 17.2276C109.786 17.4346 109.74 17.6416 109.696 17.8506C109.652 18.0606 109.612 18.2716 109.574 18.4816C109.54 18.6696 109.507 18.8576 109.474 19.0457C110.438 19.7294 111.336 20.5015 112.158 21.3517Z"
            fill="url(#paint6_linear_10_2)" />
        <path
            d="M127.553 37.0924C125.35 38.1441 122.982 38.8063 120.553 39.0495C120.417 39.0635 120.28 39.0765 120.143 39.0875V39.2125V39.0875C119.565 39.1345 118.98 39.1605 118.39 39.1605C117.8 39.1605 117.204 39.1335 116.621 39.0855L116.493 39.0745C114.088 38.8642 111.736 38.2443 109.54 37.2414L109.376 37.1664C109.402 37.2044 109.426 37.2444 109.451 37.2824C111.099 40.2626 114.077 42.2711 117.458 42.6826H117.465L117.937 42.7076C118.149 42.7166 118.377 42.7166 118.615 42.7076C118.815 42.703 119.018 42.6946 119.225 42.6826L119.75 42.6556C119.844 42.6556 119.937 42.6426 120.031 42.6366C120.143 42.6206 120.254 42.6046 120.365 42.5846C123.532 42.0165 126.241 39.9791 127.665 37.0944C127.683 37.0674 127.7 37.0394 127.717 37.0124C127.656 37.0384 127.605 37.0684 127.553 37.0924ZM110.421 38.6195C110.611 38.8781 110.811 39.1271 111.021 39.3665C110.811 39.1278 110.611 38.8788 110.421 38.6195ZM113.427 41.3386C114.292 41.8507 115.229 42.2306 116.207 42.4656C115.229 42.231 114.292 41.8511 113.427 41.3386Z"
            fill="#DD2112" />
        <path
            d="M116.662 35.0693C116.662 35.0413 116.662 35.0133 116.655 34.9843C116.677 36.4554 116.638 37.8504 116.616 39.0845C117.199 39.1325 117.789 39.1595 118.385 39.1595C118.981 39.1595 119.56 39.1335 120.138 39.0865C120.131 38.8045 120.123 38.5165 120.116 38.2254C120.116 38.0564 120.107 37.8884 120.103 37.7174C120.103 37.6004 120.103 37.4824 120.095 37.3644C120.095 37.2164 120.089 37.0644 120.087 36.9184C120.087 36.7894 120.087 36.6614 120.081 36.5314C120.075 36.4014 120.081 36.2454 120.081 36.1014C120.081 35.9574 120.081 35.8343 120.081 35.7013C120.081 35.5683 120.081 35.4143 120.081 35.2703C120.081 35.1263 120.081 34.9993 120.081 34.8623C120.081 34.7103 120.086 34.5563 120.089 34.4033C120.089 34.2753 120.089 34.1473 120.098 34.0183C120.106 33.7503 120.117 33.4823 120.13 33.2122V33.2012L120.048 33.1902C120.229 30.1379 119.655 27.088 118.378 24.3099C117.185 26.9086 116.565 29.733 116.558 32.5922C116.615 33.4032 116.645 34.2053 116.658 34.9853C116.658 35.0133 116.66 35.0383 116.662 35.0693Z"
            fill="url(#paint7_linear_10_2)" />
        <defs>
            <linearGradient
                id="paint0_linear_10_2"
                x1="132.361"
                y1="25.5089"
                x2="126.354"
                y2="44.1798"
                gradientUnits="userSpaceOnUse">
                <stop
                    offset="0.204"
                    stop-color="#F15E22" />
                <stop
                    offset="0.732"
                    stop-color="#EF4136" />
            </linearGradient>
            <linearGradient
                id="paint1_linear_10_2"
                x1="101.02"
                y1="20.0557"
                x2="109.706"
                y2="26.2422"
                gradientUnits="userSpaceOnUse">
                <stop stop-color="#FCA800" />
                <stop
                    offset="0.796"
                    stop-color="#F15E22" />
            </linearGradient>
            <linearGradient
                id="paint2_linear_10_2"
                x1="118.697"
                y1="7.7012"
                x2="107.945"
                y2="7.7012"
                gradientUnits="userSpaceOnUse">
                <stop stop-color="#00B9DA" />
                <stop
                    offset="0.061"
                    stop-color="#1BB7C3" />
                <stop
                    offset="0.208"
                    stop-color="#56B390" />
                <stop
                    offset="0.354"
                    stop-color="#89B064" />
                <stop
                    offset="0.496"
                    stop-color="#B2AD40" />
                <stop
                    offset="0.634"
                    stop-color="#D2AB24" />
                <stop
                    offset="0.767"
                    stop-color="#E9A910" />
                <stop
                    offset="0.891"
                    stop-color="#F7A804" />
                <stop
                    offset="1"
                    stop-color="#FCA800" />
            </linearGradient>
            <linearGradient
                id="paint3_linear_10_2"
                x1="124.863"
                y1="28.1481"
                x2="109.271"
                y2="28.1481"
                gradientUnits="userSpaceOnUse">
                <stop stop-color="#00BEDD" />
                <stop
                    offset="0.037"
                    stop-color="#10BDCF" />
                <stop
                    offset="0.192"
                    stop-color="#4EB799" />
                <stop
                    offset="0.345"
                    stop-color="#83B36A" />
                <stop
                    offset="0.494"
                    stop-color="#AEAF44" />
                <stop
                    offset="0.636"
                    stop-color="#D0AC26" />
                <stop
                    offset="0.772"
                    stop-color="#E8AA11" />
                <stop
                    offset="0.896"
                    stop-color="#F7A804" />
                <stop
                    offset="1"
                    stop-color="#FCA800" />
            </linearGradient>
            <linearGradient
                id="paint4_linear_10_2"
                x1="127.711"
                y1="20.9907"
                x2="116.465"
                y2="35.6649"
                gradientUnits="userSpaceOnUse">
                <stop stop-color="#00B9DA" />
                <stop
                    offset="0.09"
                    stop-color="#00B7D4" />
                <stop
                    offset="0.215"
                    stop-color="#00B3C2" />
                <stop
                    offset="0.361"
                    stop-color="#00ACA4" />
                <stop
                    offset="0.523"
                    stop-color="#00A27B" />
                <stop
                    offset="0.695"
                    stop-color="#009547" />
                <stop
                    offset="0.703"
                    stop-color="#009444" />
                <stop
                    offset="1"
                    stop-color="#FCB514" />
            </linearGradient>
            <linearGradient
                id="paint5_linear_10_2"
                x1="126.394"
                y1="9.59326"
                x2="111.4"
                y2="25.9258"
                gradientUnits="userSpaceOnUse">
                <stop
                    offset="0.204"
                    stop-color="#F15E22" />
                <stop
                    offset="0.98"
                    stop-color="#FCB514" />
            </linearGradient>
            <linearGradient
                id="paint6_linear_10_2"
                x1="115.103"
                y1="25.7069"
                x2="110.837"
                y2="24.2063"
                gradientUnits="userSpaceOnUse">
                <stop
                    offset="0.204"
                    stop-color="#F15E22" />
                <stop
                    offset="0.98"
                    stop-color="#FCB514" />
            </linearGradient>
            <linearGradient
                id="paint7_linear_10_2"
                x1="118.348"
                y1="33.9263"
                x2="118.348"
                y2="27.039"
                gradientUnits="userSpaceOnUse">
                <stop stop-color="#F15E22" />
                <stop
                    offset="1"
                    stop-color="#EF0B06" />
            </linearGradient>
        </defs>
    </svg>