<?xml version="1.0" encoding="UTF-8" standalone="no"?>
<!-- Generator: Adobe Illustrator 26.3.1, SVG Export Plug-In . SVG Version: 6.00 Build 0)  -->

<svg
   version="1.1"
   id="Layer_1"
   x="0px"
   y="0px"
   viewBox="50 0 150.66657 59.999998"
   xml:space="preserve"
   sodipodi:docname="aya-locums-logo.svg"
   width="150.66656"
   height="60"
   inkscape:version="1.3 (0e150ed6c4, 2023-07-21)"
   xmlns:inkscape="http://www.inkscape.org/namespaces/inkscape"
   xmlns:sodipodi="http://sodipodi.sourceforge.net/DTD/sodipodi-0.dtd"
   xmlns:xlink="http://www.w3.org/1999/xlink"
   xmlns="http://www.w3.org/2000/svg"
   xmlns:svg="http://www.w3.org/2000/svg"><defs
   id="defs5" /><sodipodi:namedview
   id="namedview5"
   pagecolor="#ffffff"
   bordercolor="#000000"
   borderopacity="0.25"
   inkscape:showpageshadow="2"
   inkscape:pageopacity="0.0"
   inkscape:pagecheckerboard="0"
   inkscape:deskcolor="#d1d1d1"
   inkscape:zoom="3.5857897"
   inkscape:cx="255.31336"
   inkscape:cy="101.37237"
   inkscape:window-width="2560"
   inkscape:window-height="1361"
   inkscape:window-x="2551"
   inkscape:window-y="-9"
   inkscape:window-maximized="1"
   inkscape:current-layer="Layer_1" />&#10;<style
   type="text/css"
   id="style1">&#10;	&#10;		.st0{clip-path:url(#SVGID_00000082352786474403751600000007666375356098679174_);fill:url(#SVGID_00000089559536534108593790000007405731975492245148_);}&#10;</style>&#10;<g
   id="g5"
   transform="matrix(0.29600395,0,0,0.29600395,34.9926,-14.622595)">&#10;	<defs
   id="defs1">&#10;		<path
   id="SVGID_1_"
   d="m 280.1,91.5 -47.9,120.2 c -3.9,9.5 -7.8,17 -11.8,22.5 -4,5.4 -8.7,9.3 -14.1,11.7 -5.4,2.4 -12.2,3.6 -20.5,3.6 h -8.2 l -1.2,-17.6 h 8 c 5.3,0 9.7,-0.7 13,-2.1 3.3,-1.4 6.2,-3.8 8.7,-7.3 2.5,-3.5 5.1,-8.5 7.7,-15.2 L 219.7,191.9 175,91.5 h 20.6 l 34.1,76.7 30,-76.7 z m 97.4,99.8 h -7.8 c -10.6,0 -18.4,-4.5 -21.5,-12 -3.9,4.5 -8.5,7.9 -13.8,10.3 -6.4,2.9 -13.3,4.4 -20.6,4.4 -11.2,0 -20.1,-2.8 -26.9,-8.4 -6.7,-5.6 -10.1,-13.1 -10.1,-22.5 0,-9.4 3.4,-16.9 10.1,-22.5 6.7,-5.6 15.8,-8.4 27.3,-8.4 H 348 v -3.1 c 0,-8.6 -2.2,-15.1 -6.5,-19.6 -4.3,-4.4 -8.1,-6.7 -16.1,-6.7 -6.9,0 -11.2,1.3 -15.3,4 -4.1,2.7 -6.8,6.5 -8.1,11.6 h -18.6 c 1.7,-9.7 6.4,-17.4 14.1,-23.1 7.7,-5.7 16.2,-8.6 28.1,-8.6 12.7,0 20.4,3.8 28.1,11.3 7.7,7.5 11.5,17.5 11.5,29.9 v 40.9 c 0.3,3.2 2.5,4.8 6.6,4.8 h 5.8 z m -29.4,-44.4 h -33.2 c -6.4,0 -11.4,1.4 -14.9,4.1 -3.5,2.7 -5.3,6.6 -5.3,11.5 0,4.8 1.7,8.5 5.2,11.3 3.5,2.7 8.4,4.1 14.8,4.1 6.8,0 12.7,-1.3 17.8,-3.8 5.1,-2.5 8.9,-6 11.6,-10.5 2.7,-4.5 4,-9.6 4,-15.4 z M 193.8,191.3 H 173.7 L 159.4,159.1 H 85.1 L 70.8,191.3 H 50.7 L 113,50.8 h 18.4 z M 151.9,142.4 122.2,75.5 92.5,142.4 Z m 111.4,65.2 h -7.6 v 43.5 h 25.1 v -7.4 h -17.5 z m 56.8,17.5 c 1.5,2.7 2.3,5.7 2.3,9 0,3.3 -0.8,6.3 -2.3,9 -1.6,2.7 -3.7,4.8 -6.5,6.3 -2.7,1.5 -5.7,2.3 -9.1,2.3 -0.1,0 -0.2,0 -0.2,0 -4.8,0 -9.3,-1.8 -12.6,-5.2 -3.3,-3.3 -5.1,-7.8 -5.1,-12.5 0,-3.4 0.8,-6.4 2.3,-9 1.6,-2.7 3.8,-4.8 6.5,-6.3 2.7,-1.5 5.8,-2.3 9.1,-2.3 3.3,0 6.4,0.8 9.1,2.3 2.7,1.7 4.9,3.8 6.5,6.4 z m -15.6,-1.4 c -2.9,0 -5.6,1.1 -7.6,3.2 -1.9,2 -3,4.6 -3,7.3 v 0 c 0,2.9 1.1,5.3 3.2,7.4 2.2,2.2 4.6,3.3 7.4,3.3 2.7,0 5.4,-1 7.4,-3 2.1,-2 3.2,-4.8 3.2,-7.7 0,-5.8 -4.8,-10.5 -10.6,-10.5 z m 53.1,15 c -1.8,3.8 -4.9,5.8 -9.3,5.8 -2.5,0 -5,-1 -6.9,-2.8 -2,-2 -3.1,-4.6 -3,-7.5 0,-6.1 4.3,-9.2 8,-10 4,-0.9 9,0.5 11.3,5.5 l 0.2,0.4 h 7.4 l -0.2,-0.8 c -2.2,-7.9 -8.5,-12.6 -16.7,-12.6 -3.2,0 -6.2,0.8 -8.9,2.3 -2.7,1.5 -4.9,3.7 -6.4,6.4 -1.5,2.7 -2.3,5.7 -2.3,9 0,3.3 0.8,6.3 2.3,9 1.5,2.7 3.7,4.8 6.3,6.4 v 0 c 2.7,1.5 5.7,2.3 8.9,2.3 8.2,0 14.5,-4.8 16.7,-12.7 l 0.2,-0.8 h -7.5 z m 39.8,-2.9 c 0,5.5 -2.9,8.9 -7.6,8.9 -4.7,0 -7.5,-3.4 -7.5,-8.9 v -18.6 h -7.5 v 19.4 c 0,9.1 6.1,15.2 15.1,15.2 9,0 15.1,-6.1 15.1,-15.2 v -19.4 h -7.5 v 18.6 z m 55.9,-19.3 c -4,0 -7.8,1.8 -10.4,4.8 -2.1,-3.2 -5.2,-4.8 -9.1,-4.8 -3.1,0 -5.9,1 -8.3,3 v -2.3 h -7.6 v 33.9 h 7.6 v -18.7 c 0,-2.7 1,-5.2 2.7,-6.9 1.3,-1.2 2.8,-1.9 4.3,-1.9 0,0 0.1,0 0.1,0 3.8,0 5.9,2.8 5.9,7.7 v 19.8 h 7.5 v -18.7 c 0,-2.7 1,-5.2 2.7,-6.9 1.3,-1.3 2.8,-1.9 4.4,-1.9 3.8,0 5.8,2.8 5.9,7.7 v 19.8 h 7.6 v -21.3 c 0,-3.6 -1.4,-7 -3.9,-9.4 -2.5,-2.5 -5.9,-3.9 -9.4,-3.9 z m 50.8,23.2 c -0.3,-4.2 -2.5,-7 -6.4,-8.3 -1.7,-0.5 -3.8,-1 -6.3,-1.4 l -2,-0.3 c -0.3,-0.1 -0.6,-0.1 -1,-0.2 l -0.7,-0.2 c -1.1,-0.3 -1.6,-0.6 -2.4,-1.1 -0.4,-0.3 -0.6,-0.8 -0.6,-1.5 0,-2 2.1,-3.2 5.5,-3.2 3.7,0 5.7,1.7 5.9,5 v 0.6 h 7.2 v -0.7 c -0.2,-7.3 -5.3,-12 -13,-12 -7.6,0 -13,4.3 -13,10.4 0,1.7 0.3,3 0.8,4.2 0.6,1.3 1.2,2.1 2.1,2.9 l 0.6,0.5 c 0.3,0.3 0.6,0.4 0.8,0.6 0.4,0.2 0.9,0.5 1.5,0.7 1.1,0.4 2,0.7 3.2,1 0.9,0.2 2,0.4 3.2,0.6 1.6,0.3 2.8,0.5 3.9,0.8 1.1,0.3 1.6,0.5 2.4,1.2 0.5,0.4 0.7,1 0.7,1.8 0,2.1 -2.4,3.5 -6,3.5 -3.9,0 -6.3,-2 -6.5,-5.4 v -0.6 h -7.3 v 0.7 c 0.3,7.6 5.6,12.5 13.7,12.5 8.1,0 13.6,-4.4 13.6,-11 0,-0.2 0,-0.5 0,-0.9 z m -8.7,-107.8 c -9,13 -9.9,36.1 -9.9,36.2 v 0 25.9 c 20.9,-7.8 35.5,-46.3 29.5,-82.1 -9,6.2 -15.6,13.9 -19.6,20 z m -11.9,-8 c 3.5,-5.3 11.2,-15.4 23.4,-23.8 1.4,-1 2.9,-1.9 4.3,-2.8 -11.8,-35.5 -32.9,-47.9 -32.9,-47.9 0,0 -21.2,12.5 -32.9,47.9 1.5,0.9 2.9,1.8 4.3,2.8 12.2,8.4 19.9,18.5 23.4,23.8 2.1,3 3.8,6.3 5.2,9.7 1.5,-3.4 3.2,-6.7 5.2,-9.7 z m -41.8,-12 c -6.1,35.8 8.6,74.3 29.5,82.1 v -26 0 c 0,0 -0.9,-23.2 -9.9,-36.2 -4,-6 -10.6,-13.7 -19.6,-19.9 z M 431.4,163 c -5.9,-18.7 -6.8,-39.5 -2.8,-58.2 -6.2,-2.5 -13.2,-4 -20.7,-4 -2.8,0 -5.6,0.2 -8.5,0.6 0,0 -7.3,21.6 4.2,47.3 7.2,16.6 22,29.5 38.5,37.2 -4.3,-6.5 -7.9,-14.2 -10.7,-22.9 z m 126,-61.6 c -2.9,-0.4 -5.8,-0.6 -8.5,-0.6 -7.6,0 -14.5,1.5 -20.7,4 4,18.7 3,39.5 -2.8,58.2 -2.7,8.7 -6.3,16.4 -10.6,23 16.5,-7.8 31.4,-20.7 38.5,-37.2 11.4,-25.8 4.1,-47.4 4.1,-47.4 z" />&#10;	</defs>&#10;	<clipPath
   id="SVGID_00000163049089465691181500000001943972081928656011_">&#10;		<use
   xlink:href="#SVGID_1_"
   style="overflow:visible"
   id="use1" />&#10;	</clipPath>&#10;	&#10;		<linearGradient
   id="SVGID_00000003787542130196700590000003102202824464607415_"
   gradientUnits="userSpaceOnUse"
   x1="70.541603"
   y1="71.814499"
   x2="1265.1847"
   y2="473.82141">&#10;		<stop
   offset="1.425221e-02"
   style="stop-color:#004569"
   id="stop1" />&#10;		<stop
   offset="0.2681"
   style="stop-color:#006273"
   id="stop2" />&#10;		<stop
   offset="0.5392"
   style="stop-color:#007A7B"
   id="stop3" />&#10;		<stop
   offset="0.7903"
   style="stop-color:#00897F"
   id="stop4" />&#10;		<stop
   offset="1"
   style="stop-color:#008E81"
   id="stop5" />&#10;	</linearGradient>&#10;	&#10;		<rect
   x="-23.700001"
   y="-34.5"
   style="fill:url(#SVGID_00000003787542130196700590000003102202824464607415_)"
   width="657.5"
   height="370.60001"
   clip-path="url(#SVGID_00000163049089465691181500000001943972081928656011_)"
   id="rect5" />&#10;</g>&#10;</svg>
