<svg width="151" height="60" viewBox="0 0 151 60" fill="none" xmlns="http://www.w3.org/2000/svg">
<g clip-path="url(#clip0_1_3)">
<mask id="mask0_1_3" style="mask-type:luminance" maskUnits="userSpaceOnUse" x="0" y="0" width="151" height="60">
<path d="M67.9033 12.4618L53.7247 48.0414C52.5703 50.8535 51.4159 53.0735 50.2319 54.7015C49.0479 56.2999 47.6566 57.4544 46.0582 58.1648C44.4598 58.8752 42.447 59.2304 39.9901 59.2304H37.5629L37.2077 54.0207H39.5757C41.1445 54.0207 42.447 53.8135 43.4238 53.3991C44.4006 52.9847 45.259 52.2743 45.999 51.2383C46.739 50.2023 47.5086 48.7222 48.2782 46.739L50.0247 42.1806L36.7933 12.4618H42.891L52.9847 35.1653L61.8648 12.4618H67.9033ZM96.7341 42.003H94.4253C91.2876 42.003 88.9788 40.6709 88.0612 38.4509C86.9068 39.7829 85.5451 40.7893 83.9763 41.4998C82.0819 42.3582 80.0395 42.8022 77.8786 42.8022C74.5634 42.8022 71.929 41.9734 69.9161 40.3157C67.9329 38.6581 66.9265 36.4381 66.9265 33.6556C66.9265 30.8732 67.9329 28.6532 69.9161 26.9956C71.8994 25.3379 74.593 24.5091 77.997 24.5091H88.002V23.5915C88.002 21.0459 87.3508 19.1219 86.0779 17.7898C84.8051 16.4874 83.6803 15.8066 81.3123 15.8066C79.2698 15.8066 77.997 16.1914 76.7834 16.9906C75.5698 17.7898 74.7706 18.9147 74.3858 20.4243H68.8801C69.3833 17.553 70.7745 15.2738 73.0538 13.5866C75.333 11.8994 77.849 11.0409 81.3715 11.0409C85.1307 11.0409 87.41 12.1658 89.6892 14.3858C91.9684 16.6058 93.0932 19.5659 93.0932 23.2363V35.3429C93.182 36.2901 93.8332 36.7637 95.0469 36.7637H96.7637L96.7341 42.003ZM88.0316 28.8604H78.2042C76.3098 28.8604 74.8298 29.2748 73.7938 30.074C72.7578 30.8732 72.225 32.0276 72.225 33.478C72.225 34.8989 72.7282 35.9941 73.7642 36.8229C74.8002 37.6221 76.2506 38.0365 78.145 38.0365C80.1579 38.0365 81.9043 37.6517 83.4139 36.9117C84.9235 36.1717 86.0483 35.1357 86.8476 33.8037C87.6468 32.4716 88.0316 30.962 88.0316 29.2452V28.8604ZM42.3582 42.003H36.4085L32.1756 32.4716H10.1825L5.94968 42.003H0L18.441 0.414405H23.8875L42.3582 42.003ZM29.9556 27.5284L21.1643 7.7257L12.373 27.5284H29.9556ZM62.9304 46.8278H60.6808V59.704H68.1105V57.5136H62.9304V46.8278ZM79.7435 52.0079C80.1875 52.8071 80.4243 53.6951 80.4243 54.6719C80.4243 55.6487 80.1875 56.5368 79.7435 57.336C79.2699 58.1352 78.6482 58.7568 77.8194 59.2008C77.0202 59.6448 76.1322 59.8816 75.1258 59.8816C75.0962 59.8816 75.0666 59.8816 75.0666 59.8816C73.6458 59.8816 72.3138 59.3488 71.337 58.3424C70.3601 57.3656 69.8273 56.0335 69.8273 54.6423C69.8273 53.6359 70.0641 52.7479 70.5081 51.9783C70.9817 51.1791 71.633 50.5575 72.4322 50.1135C73.2314 49.6695 74.149 49.4327 75.1258 49.4327C76.1026 49.4327 77.0202 49.6695 77.8194 50.1135C78.6186 50.6167 79.2699 51.2383 79.7435 52.0079V52.0079ZM75.1258 51.5935C74.2674 51.5935 73.4682 51.9191 72.8762 52.5407C72.3138 53.1327 71.9882 53.9023 71.9882 54.7015C71.9882 55.5599 72.3138 56.2704 72.9354 56.892C73.5866 57.5432 74.297 57.8688 75.1258 57.8688C75.925 57.8688 76.7242 57.5728 77.3162 56.9808C77.9378 56.3888 78.2634 55.5599 78.2634 54.7015C78.2634 52.9847 76.8426 51.5935 75.1258 51.5935V51.5935ZM90.8436 56.0335C90.3108 57.1584 89.3932 57.7504 88.0908 57.7504C87.3508 57.7504 86.6107 57.4544 86.0483 56.9216C85.4563 56.3295 85.1307 55.5599 85.1603 54.7015C85.1603 52.8959 86.4331 51.9783 87.5284 51.7415C88.7124 51.4751 90.1924 51.8895 90.8732 53.3695L90.9324 53.4879H93.1228L93.0636 53.2511C92.4124 50.9127 90.5476 49.5215 88.1204 49.5215C87.1732 49.5215 86.2851 49.7583 85.4859 50.2023C84.6867 50.6463 84.0355 51.2975 83.5915 52.0967C83.1475 52.8959 82.9107 53.7839 82.9107 54.7607C82.9107 55.7375 83.1475 56.6256 83.5915 57.4248C84.0355 58.224 84.6867 58.8456 85.4563 59.3192C86.2555 59.7632 87.1436 60 88.0908 60C90.518 60 92.3828 58.5792 93.034 56.2407L93.0932 56.0039H90.8732L90.8436 56.0335ZM102.625 55.1751C102.625 56.8032 101.766 57.8096 100.375 57.8096C98.9837 57.8096 98.1549 56.8032 98.1549 55.1751V49.6695H95.9349V55.4119C95.9349 58.1056 97.7405 59.9112 100.405 59.9112C103.069 59.9112 104.874 58.1056 104.874 55.4119V49.6695H102.654V55.1751H102.625ZM119.171 49.4623C117.987 49.4623 116.862 49.9951 116.093 50.8831C115.471 49.9359 114.554 49.4623 113.399 49.4623C112.481 49.4623 111.653 49.7583 110.942 50.3503V49.6695H108.693V59.704H110.942V54.1687C110.942 53.3695 111.238 52.6295 111.741 52.1263C112.126 51.7711 112.57 51.5639 113.014 51.5639H113.044C114.169 51.5639 114.79 52.3927 114.79 53.8431V59.704H117.01V54.1687C117.01 53.3695 117.306 52.6295 117.81 52.1263C118.194 51.7415 118.638 51.5639 119.112 51.5639C120.237 51.5639 120.829 52.3927 120.858 53.8431V59.704H123.108V53.3991C123.108 52.3335 122.694 51.3271 121.954 50.6167C121.214 49.8767 120.207 49.4623 119.171 49.4623V49.4623ZM134.208 56.3295C134.119 55.0863 133.468 54.2575 132.314 53.8727C131.811 53.7247 131.189 53.5767 130.449 53.4583L129.857 53.3695C129.768 53.3399 129.679 53.3399 129.561 53.3103L129.354 53.2511C129.028 53.1623 128.88 53.0735 128.643 52.9255C128.525 52.8367 128.466 52.6887 128.466 52.4815C128.466 51.8895 129.087 51.5343 130.094 51.5343C131.189 51.5343 131.781 52.0375 131.84 53.0143V53.1919H133.971V52.9847C133.912 50.8239 132.403 49.4327 130.123 49.4327C127.874 49.4327 126.275 50.7055 126.275 52.5111C126.275 53.0143 126.364 53.3991 126.512 53.7543C126.69 54.1391 126.867 54.3759 127.134 54.6127L127.311 54.7607C127.4 54.8495 127.489 54.8791 127.548 54.9383C127.666 54.9975 127.814 55.0863 127.992 55.1455C128.318 55.2639 128.584 55.3527 128.939 55.4415C129.206 55.5007 129.531 55.5599 129.887 55.6191C130.36 55.7079 130.715 55.7671 131.041 55.8559C131.367 55.9447 131.515 56.0039 131.751 56.2111C131.899 56.3295 131.959 56.5072 131.959 56.744C131.959 57.3656 131.248 57.78 130.183 57.78C129.028 57.78 128.318 57.188 128.259 56.1815V56.0039H126.098V56.2111C126.186 58.4608 127.755 59.9112 130.153 59.9112C132.551 59.9112 134.179 58.6088 134.179 56.6552C134.179 56.596 134.179 56.5072 134.179 56.3888L134.208 56.3295ZM131.633 24.4203C128.969 28.2684 128.703 35.1061 128.703 35.1357V42.8022C134.889 40.4933 139.211 29.0972 137.435 18.5002C134.771 20.3355 132.817 22.6147 131.633 24.4203V24.4203ZM128.111 22.0523C129.147 20.4835 131.426 17.4938 135.037 15.0074C135.451 14.7114 135.895 14.445 136.31 14.1786C132.817 3.67045 126.571 0 126.571 0C126.571 0 120.296 3.70005 116.833 14.1786C117.277 14.445 117.691 14.7114 118.106 15.0074C121.717 17.4938 123.996 20.4835 125.032 22.0523C125.654 22.9403 126.157 23.9171 126.571 24.9235C127.015 23.9171 127.518 22.9403 128.111 22.0523V22.0523ZM115.738 18.5002C113.932 29.0972 118.283 40.4933 124.47 42.8022V35.1061C124.47 35.1061 124.203 28.2388 121.539 24.3907C120.355 22.6147 118.402 20.3355 115.738 18.5002V18.5002ZM112.689 33.626C110.942 28.0908 110.676 21.9339 111.86 16.3986C110.025 15.6586 107.953 15.2146 105.733 15.2146C104.904 15.2146 104.075 15.2738 103.217 15.3922C103.217 15.3922 101.056 21.7859 104.46 29.3932C106.591 34.3069 110.972 38.1253 115.856 40.4045C114.583 38.4805 113.518 36.2013 112.689 33.626V33.626ZM149.985 15.3922C149.127 15.2738 148.268 15.2146 147.469 15.2146C145.22 15.2146 143.177 15.6586 141.342 16.3986C142.526 21.9339 142.23 28.0908 140.513 33.626C139.714 36.2013 138.648 38.4805 137.375 40.4341C142.259 38.1253 146.67 34.3069 148.772 29.4228C152.146 21.7859 149.985 15.3922 149.985 15.3922Z" fill="white"/>
</mask>
<g mask="url(#mask0_1_3)">
<path d="M172.6 -24.8347H-22.0227V84.8643H172.6V-24.8347Z" fill="url(#paint0_linear_1_3)"/>
</g>
</g>
<defs>
<linearGradient id="paint0_linear_1_3" x1="5.87318" y1="6.63479" x2="359.492" y2="125.63" gradientUnits="userSpaceOnUse">
<stop offset="0.0142522" stop-color="#00689F"/>
<stop offset="0.2681" stop-color="#009EB9"/>
<stop offset="0.5392" stop-color="#00BBBC"/>
<stop offset="0.7903" stop-color="#00CEBF"/>
<stop offset="1" stop-color="#00D7C3"/>
</linearGradient>
<clipPath id="clip0_1_3">
<rect width="150.667" height="60" fill="white"/>
</clipPath>
</defs>
</svg>
