<svg width="216" height="43" viewBox="0 0 216 43" fill="none" xmlns="http://www.w3.org/2000/svg">
    <path fill-rule="evenodd" clip-rule="evenodd" d="M201 0H196.809V4.19376C196.809 6.50991 198.685 8.38752 201 8.38752C203.314 8.38752 205.19 6.50991 205.19 4.19376C205.19 1.87761 203.314 0 201 0ZM207.619 4.19376V8.38752H211.809C214.124 8.38752 216 6.50991 216 4.19376C216 1.87761 214.124 0 211.809 0C209.495 0 207.619 1.87761 207.619 4.19376ZM207.619 10.8174H211.809C214.124 10.8174 216 12.695 216 15.0112C216 17.3273 214.124 19.2049 211.809 19.2049C209.495 19.2049 207.619 17.3273 207.619 15.0112V10.8174ZM205.19 15.0112V10.8174H201C198.685 10.8174 196.809 12.695 196.809 15.0112C196.809 17.3273 198.685 19.2049 201 19.2049C203.314 19.2049 205.19 17.3273 205.19 15.0112Z" fill="#F15E22"/>
    <path d="M184.479 42.9999C177.102 42.9999 173.003 37.7592 173.003 30.65C173.003 23.3586 177.375 18.3458 184.479 18.3458C191.537 18.3458 195.499 22.994 195.499 30.1943C195.499 30.8323 195.499 31.5159 195.454 31.8805H177.603C177.694 35.754 179.971 39.3542 184.57 39.3542C188.669 39.3542 190.262 36.711 190.672 35.1616H195.226C193.996 39.6276 190.581 42.9999 184.479 42.9999ZM177.603 28.3715H190.854C190.854 24.7258 188.304 21.9915 184.342 21.9915C180.608 21.9915 177.876 24.5435 177.603 28.3715Z" fill="url(#paint0_linear_5627_1536)"/>
    <path d="M164.9 27.4145C164.9 24.3156 163.534 22.2193 160.164 22.2193C156.339 22.2193 153.879 24.5435 153.879 28.0525V42.3163H149.417V19.0749H153.879V21.9915H153.971C155.2 20.2142 157.614 18.3913 161.621 18.3913C165.902 18.3913 169.362 20.8522 169.362 26.184V42.3163H164.9V27.4145Z" fill="url(#paint1_linear_5627_1536)"/>
    <path d="M129.581 42.9544C119.836 42.9544 113.597 35.7997 113.597 26.0018C113.597 16.2039 119.836 9.0948 129.581 9.0948C139.326 9.0948 145.565 16.2039 145.565 26.0018C145.565 35.7997 139.326 42.9544 129.581 42.9544ZM118.834 26.0018C118.834 32.7008 121.885 38.6251 129.581 38.6251C137.277 38.6251 140.328 32.7008 140.328 26.0018C140.328 19.3028 137.277 13.4241 129.581 13.4241C121.885 13.4241 118.834 19.3028 118.834 26.0018Z" fill="url(#paint2_linear_5627_1536)"/>
    <path d="M96.877 42.9543C89.8186 42.9543 86.3122 39.3086 86.1755 34.5692H90.6838C90.8659 37.2579 92.5053 39.3542 96.8314 39.3542C100.748 39.3542 101.795 37.6225 101.795 35.9363C101.795 33.0198 98.6985 32.7008 95.693 32.0628C91.6401 31.1058 86.9952 29.9209 86.9952 25.0903C86.9952 21.08 90.2284 18.3913 95.8296 18.3913C102.205 18.3913 105.256 21.8092 105.575 25.8195H101.066C100.748 24.0422 99.7914 21.9915 95.9207 21.9915C92.9152 21.9915 91.6401 23.1763 91.6401 24.908C91.6401 27.3233 94.2358 27.5512 97.5145 28.2803C101.795 29.2829 106.44 30.5133 106.44 35.7085C106.44 40.22 102.979 42.9543 96.877 42.9543Z" fill="#2F3233"/>
    <path d="M78.2549 33.3388V19.0749H82.7176V42.3164H78.2549V39.3998H78.1638C76.9343 41.1771 74.5208 42.9544 70.5134 42.9544C66.2329 42.9544 62.772 40.4935 62.772 35.1616V19.0749H67.2347V33.9312C67.2347 37.0756 68.6008 39.1719 71.9707 39.1719C75.7958 39.1719 78.2549 36.8478 78.2549 33.3388Z" fill="#2F3233"/>
    <path d="M57.373 38.8985C58.1472 38.8985 58.5115 38.8529 59.2856 38.7162V42.3164C58.1472 42.5442 57.4186 42.5898 56.4623 42.5898C52.6371 42.5898 50.3146 41.1315 50.3146 35.7541V22.7662H46.9448V19.0749H50.3146V11.6012H54.7774V19.0749H59.2401V22.7662H54.7774V35.8908C54.7774 38.3516 55.4604 38.8985 57.373 38.8985Z" fill="#2F3233"/>
    <path d="M33.8461 42.9999C26.6055 42.9999 22.2339 37.9871 22.2339 30.6957C22.2339 23.4498 26.6055 18.3458 33.8916 18.3458C41.0866 18.3458 45.4583 23.4042 45.4583 30.6501C45.4583 37.9415 41.0866 42.9999 33.8461 42.9999ZM33.8916 39.3087C38.6276 39.3087 40.8134 35.5262 40.8134 30.6957C40.8134 25.8195 38.6276 22.0827 33.8916 22.0827C29.0646 22.0827 26.8788 25.8195 26.8788 30.6957C26.8788 35.5262 29.0646 39.3087 33.8916 39.3087Z" fill="#2F3233"/>
    <path d="M21.4939 42.3164H0V9.73286H5.00918V37.9871H21.4939V42.3164Z" fill="#2F3233"/>
    <defs>
        <linearGradient id="paint0_linear_5627_1536" x1="101.342" y1="26.0408" x2="207.056" y2="28.4786" gradientUnits="userSpaceOnUse">
            <stop stop-color="#00B9DA"/>
            <stop offset="0.486855" stop-color="#FCB514"/>
            <stop offset="1" stop-color="#F15E22"/>
        </linearGradient>
        <linearGradient id="paint1_linear_5627_1536" x1="101.342" y1="26.0408" x2="207.055" y2="28.4786" gradientUnits="userSpaceOnUse">
            <stop stop-color="#00B9DA"/>
            <stop offset="0.486855" stop-color="#FCB514"/>
            <stop offset="1" stop-color="#F15E22"/>
        </linearGradient>
        <linearGradient id="paint2_linear_5627_1536" x1="101.342" y1="26.0409" x2="207.055" y2="28.4786" gradientUnits="userSpaceOnUse">
            <stop stop-color="#00B9DA"/>
            <stop offset="0.486855" stop-color="#FCB514"/>
            <stop offset="1" stop-color="#F15E22"/>
        </linearGradient>
    </defs>
</svg>