<svg width="150" height="77" viewBox="0 0 150 77" fill="none" xmlns="http://www.w3.org/2000/svg">
<path d="M52.1437 21.5348C51.7571 22.3901 51.0855 23.1245 50.182 23.5787C48.0996 24.6175 45.5677 23.7671 44.5338 21.6846C43.6496 19.9066 44.1424 17.8048 45.5967 16.5824C43.0891 15.4131 40.2915 14.756 37.3394 14.756C26.5309 14.756 17.771 23.5158 17.771 34.3243C17.771 43.4852 24.0667 51.1725 32.5705 53.3032C32.5995 53.0472 32.7106 52.7959 32.9039 52.593C33.3725 52.1243 34.1263 52.1243 34.595 52.5882C34.9042 52.8974 35.0057 53.3371 34.9042 53.7333C35.7014 53.8299 36.5131 53.8879 37.3345 53.8879C48.143 53.8879 56.9029 45.128 56.9029 34.3195C56.9077 29.4298 55.1103 24.9654 52.1437 21.5348ZM27.9949 38.7792C28.2075 37.5133 29.4009 36.6581 30.6668 36.8707C31.9327 37.0832 32.7879 38.2767 32.5753 39.5426C32.3627 40.8085 31.1693 41.6637 29.9034 41.4511C28.6375 41.2385 27.7823 40.0451 27.9949 38.7792ZM28.4394 45.7513C28.2848 44.7511 28.9709 43.809 29.9759 43.6544C30.9809 43.4997 31.9182 44.1858 32.0728 45.1908C32.2274 46.191 31.5413 47.1332 30.5363 47.2878C29.5313 47.4424 28.594 46.7515 28.4394 45.7513ZM32.2951 51.3609C31.5655 51.7233 30.6813 51.4189 30.3189 50.6893C29.9565 49.9597 30.2609 49.0755 30.9905 48.7131C31.7201 48.3508 32.6043 48.6552 32.9667 49.3847C33.3242 50.1192 33.0247 51.0034 32.2951 51.3609ZM35.6289 33.6334C34.9042 35.0201 33.1938 35.5613 31.8071 34.8365C30.4204 34.1118 29.8792 32.4013 30.604 31.0146C31.3287 29.6279 33.0392 29.0868 34.4259 29.8115C35.8174 30.5363 36.3537 32.2467 35.6289 33.6334ZM41.3352 27.845C39.9678 29.1931 37.7694 29.1738 36.4213 27.8064C35.0733 26.439 35.0926 24.2406 36.46 22.8926C37.8274 21.5445 40.0258 21.5638 41.3738 22.9312C42.7219 24.2986 42.7025 26.497 41.3352 27.845Z" fill="#7AC251"/>
<path d="M111.361 15.6692L108.128 16.4278C107.645 16.5631 107.375 16.8385 107.375 17.3216V20.2448V23.9314V49.0852H96.7885C89.913 49.0852 87.3667 48.4667 87.3667 37.7404V23.9314V20.2448V16.4278C87.3667 15.7417 87.0236 15.4663 86.3375 15.6692L83.1003 16.4278C82.6171 16.5631 82.3466 16.8385 82.3466 17.3216V20.2448V23.9314V37.8129C82.3466 51.9746 86.2651 53.4869 97.6099 53.4869C100.842 53.4869 106.138 53.4869 111.496 52.5254C112.115 52.3901 112.39 52.3176 112.39 51.6315V23.9314V20.2448V16.4278C112.39 15.7368 112.047 15.4614 111.361 15.6692Z" fill="#B0BBC3"/>
<path d="M4.82685 62.2999C4.78337 62.1453 4.87034 62.039 5.02495 62.039H5.48397C5.57094 62.039 5.65791 62.1163 5.68207 62.1936L7.19922 67.8467H7.2427L9.06425 62.0535C9.08358 61.9858 9.15122 61.9327 9.24786 61.9327H9.44596C9.53293 61.9327 9.61023 61.9858 9.62956 62.0535L11.4849 67.8467H11.5284L13.0117 62.1936C13.0359 62.1163 13.1229 62.039 13.2098 62.039H13.6689C13.8235 62.039 13.9104 62.1501 13.867 62.2999L11.8038 69.6344C11.7845 69.7214 11.6927 69.7842 11.6057 69.7842H11.4318C11.3545 69.7842 11.2772 69.731 11.2482 69.6634L9.35899 63.7591H9.30584L7.45047 69.6634C7.41664 69.731 7.33934 69.7842 7.26686 69.7842H7.09292C7.00595 69.7842 6.91898 69.7214 6.89482 69.6344L4.82685 62.2999Z" fill="#B0BBC3"/>
<path d="M19.2398 61.9327C21.4237 61.9327 23.168 63.6866 23.168 65.8705C23.168 68.0544 21.4237 69.789 19.2398 69.789C17.0559 69.789 15.3213 68.0544 15.3213 65.8705C15.3261 63.6866 17.0607 61.9327 19.2398 61.9327ZM19.2398 69.0208C20.9744 69.0208 22.4046 67.6003 22.4046 65.8657C22.4046 64.1311 20.9744 62.6913 19.2398 62.6913C17.5052 62.6913 16.0847 64.1311 16.0847 65.8657C16.0895 67.6051 17.5052 69.0208 19.2398 69.0208Z" fill="#B0BBC3"/>
<path d="M25.3857 62.2468C25.3857 62.1356 25.4727 62.039 25.5935 62.039H28.42C29.7294 62.039 30.7972 63.0633 30.7972 64.3631C30.7972 65.368 30.1305 66.2088 29.1835 66.5905L30.6764 69.3639C30.7538 69.504 30.6764 69.6779 30.4928 69.6779H29.9372C29.8406 69.6779 29.7826 69.6248 29.7633 69.5813L28.3137 66.6919H26.2313V69.475C26.2313 69.5861 26.1347 69.6827 26.0235 69.6827H25.5983C25.4775 69.6827 25.3906 69.5861 25.3906 69.475V62.2468H25.3857ZM28.3621 65.9672C29.2028 65.9672 29.9324 65.2666 29.9324 64.3727C29.9324 63.5417 29.2028 62.8362 28.3621 62.8362H26.2458V65.9672H28.3621Z" fill="#B0BBC3"/>
<path d="M33.1406 62.2999C33.1406 62.1598 33.2517 62.039 33.4015 62.039H33.7204C33.8605 62.039 33.9813 62.1598 33.9813 62.2999V65.3874L37.3828 62.1453C37.4263 62.0922 37.5229 62.0342 37.5906 62.0342H38.1269C38.325 62.0342 38.4313 62.2516 38.2573 62.4159L34.8075 65.6338L38.4168 69.3349C38.4941 69.4122 38.4699 69.6731 38.2332 69.6731H37.6775C37.6002 69.6731 37.5036 69.6296 37.4794 69.5958L33.9765 65.943V69.4122C33.9765 69.5523 33.8557 69.6731 33.7155 69.6731H33.3967C33.242 69.6731 33.1357 69.5523 33.1357 69.4122V62.2999H33.1406Z" fill="#B0BBC3"/>
<path d="M40.3737 62.2468C40.3737 62.1356 40.4606 62.039 40.5814 62.039H44.8816C45.0024 62.039 45.0894 62.1356 45.0894 62.2468V62.5657C45.0894 62.6768 45.0024 62.7734 44.8816 62.7734H41.2144V65.7642H44.3453C44.4564 65.7642 44.5531 65.8609 44.5531 65.972V66.2909C44.5531 66.402 44.4564 66.4987 44.3453 66.4987H41.2144V69.4798C41.2144 69.5909 41.1177 69.6876 41.0066 69.6876H40.5814C40.4606 69.6876 40.3737 69.5909 40.3737 69.4798V62.2468Z" fill="#B0BBC3"/>
<path d="M50.4913 61.9327C52.6752 61.9327 54.4194 63.6866 54.4194 65.8705C54.4194 68.0544 52.6752 69.789 50.4913 69.789C48.3073 69.789 46.5728 68.0544 46.5728 65.8705C46.5728 63.6866 48.3073 61.9327 50.4913 61.9327ZM50.4913 69.0208C52.2258 69.0208 53.656 67.6003 53.656 65.8657C53.656 64.1311 52.2258 62.6913 50.4913 62.6913C48.7567 62.6913 47.3362 64.1311 47.3362 65.8657C47.3362 67.6051 48.7567 69.0208 50.4913 69.0208Z" fill="#B0BBC3"/>
<path d="M56.6323 62.2468C56.6323 62.1356 56.7193 62.039 56.8401 62.039H59.6666C60.976 62.039 62.0438 63.0633 62.0438 64.3631C62.0438 65.368 61.377 66.2088 60.43 66.5905L61.923 69.3639C62.0003 69.504 61.923 69.6779 61.7394 69.6779H61.1838C61.0871 69.6779 61.034 69.6248 61.0098 69.5813L59.5603 66.6919H57.4779V69.475C57.4779 69.5861 57.3812 69.6827 57.2701 69.6827H56.8449C56.7241 69.6827 56.6372 69.5861 56.6372 69.475V62.2468H56.6323ZM59.6135 65.9672C60.4542 65.9672 61.1838 65.2666 61.1838 64.3727C61.1838 63.5417 60.4542 62.8362 59.6135 62.8362H57.4972V65.9672H59.6135Z" fill="#B0BBC3"/>
<path d="M67.7742 61.9327C68.8758 61.9327 69.6731 62.3144 70.4123 62.9473C70.4993 63.0343 70.5089 63.1648 70.422 63.2517L70.1272 63.5465C70.0403 63.6576 69.9533 63.6431 69.8422 63.5368C69.2769 63.044 68.499 62.7202 67.7597 62.7202C66.0348 62.7202 64.7157 64.1698 64.7157 65.8608C64.7157 67.5423 66.0348 68.9918 67.7597 68.9918C68.7067 68.9918 69.2672 68.6101 69.8422 68.1752C69.9533 68.0883 70.0403 68.0979 70.1031 68.1414L70.4316 68.4361C70.5186 68.5038 70.4945 68.6536 70.422 68.7309C69.6779 69.4508 68.7405 69.789 67.7694 69.789C65.5854 69.789 63.8315 68.0544 63.8315 65.8705C63.8364 63.6866 65.5903 61.9327 67.7742 61.9327Z" fill="#B0BBC3"/>
<path d="M72.6494 62.2468C72.6494 62.1356 72.7364 62.039 72.8572 62.039H77.1574C77.2782 62.039 77.3651 62.1356 77.3651 62.2468V62.5657C77.3651 62.6768 77.2782 62.7734 77.1574 62.7734H73.4901V65.4357H76.6211C76.7322 65.4357 76.8288 65.5323 76.8288 65.6434V65.9623C76.8288 66.0831 76.7322 66.1701 76.6211 66.1701H73.4901V68.9532H77.1574C77.2782 68.9532 77.3651 69.0498 77.3651 69.1609V69.4798C77.3651 69.5909 77.2782 69.6876 77.1574 69.6876H72.8572C72.7364 69.6876 72.6494 69.5909 72.6494 69.4798V62.2468Z" fill="#B0BBC3"/>
<path d="M82.134 68.5328C82.1872 68.4699 82.2452 68.3926 82.2983 68.325C82.4094 68.1849 82.5302 68.0979 82.68 68.2284C82.7573 68.2912 83.5545 69.0594 84.5257 69.0594C85.4099 69.0594 85.9897 68.5038 85.9897 67.8612C85.9897 67.1074 85.3374 66.6629 84.0812 66.1362C82.8829 65.6096 82.1582 65.1216 82.1582 63.8798C82.1582 63.1358 82.7477 61.9375 84.4822 61.9375C85.55 61.9375 86.3473 62.4931 86.3473 62.4931C86.4149 62.527 86.5454 62.6574 86.4149 62.8652C86.3714 62.9328 86.3279 63.0053 86.2845 63.0729C86.1878 63.2276 86.0767 63.271 85.9027 63.1696C85.8254 63.1261 85.1393 62.6671 84.4726 62.6671C83.3178 62.6671 82.9651 63.4112 82.9651 63.8653C82.9651 64.5949 83.5207 65.0201 84.4387 65.4018C85.9124 66.001 86.8594 66.5566 86.8594 67.8225C86.8594 68.958 85.7771 69.7842 84.5016 69.7842C83.2163 69.7842 82.3418 69.0304 82.1968 68.9C82.1099 68.8275 82.0036 68.7405 82.134 68.5328Z" fill="#B0BBC3"/>
<path d="M92.3433 61.9327C94.5272 61.9327 96.2715 63.6866 96.2715 65.8705C96.2715 68.0544 94.5272 69.789 92.3433 69.789C90.1594 69.789 88.4248 68.0544 88.4248 65.8705C88.4296 63.6866 90.1642 61.9327 92.3433 61.9327ZM92.3433 69.0208C94.0779 69.0208 95.5081 67.6003 95.5081 65.8657C95.5081 64.1311 94.0779 62.6913 92.3433 62.6913C90.6087 62.6913 89.1882 64.1311 89.1882 65.8657C89.193 67.6051 90.6087 69.0208 92.3433 69.0208Z" fill="#B0BBC3"/>
<path d="M98.4893 62.2468C98.4893 62.1356 98.5762 62.039 98.697 62.039H99.1222C99.2333 62.039 99.33 62.1356 99.33 62.2468V68.9435H102.471C102.591 68.9435 102.678 69.0401 102.678 69.1513V69.4702C102.678 69.5813 102.591 69.6779 102.471 69.6779H98.697C98.5762 69.6779 98.4893 69.5813 98.4893 69.4702V62.2468Z" fill="#B0BBC3"/>
<path d="M104.128 62.2468C104.128 62.1356 104.224 62.039 104.336 62.039H104.751C104.872 62.039 104.959 62.1356 104.959 62.2468V66.7982C104.959 68.04 105.732 69.0111 107.008 69.0111C108.293 69.0111 109.08 68.0641 109.08 66.8175V62.2468C109.08 62.1356 109.167 62.039 109.288 62.039H109.704C109.815 62.039 109.911 62.1356 109.911 62.2468V66.861C109.911 68.5183 108.732 69.7842 107.008 69.7842C105.292 69.7842 104.128 68.5183 104.128 66.861V62.2468Z" fill="#B0BBC3"/>
<path d="M113.666 62.7686H111.767C111.646 62.7686 111.559 62.672 111.559 62.5608V62.2419C111.559 62.1308 111.646 62.0342 111.767 62.0342H116.391C116.511 62.0342 116.598 62.1308 116.598 62.2419V62.5608C116.598 62.672 116.511 62.7686 116.391 62.7686H114.492V69.4653C114.492 69.5765 114.395 69.6731 114.284 69.6731H113.869C113.757 69.6731 113.661 69.5765 113.661 69.4653V62.7686H113.666Z" fill="#B0BBC3"/>
<path d="M118.348 62.2468C118.348 62.1356 118.444 62.039 118.555 62.039H118.99C119.101 62.039 119.198 62.1356 119.198 62.2468V69.4702C119.198 69.5813 119.101 69.6779 118.99 69.6779H118.555C118.444 69.6779 118.348 69.5813 118.348 69.4702V62.2468Z" fill="#B0BBC3"/>
<path d="M125.329 61.9327C127.513 61.9327 129.258 63.6866 129.258 65.8705C129.258 68.0544 127.513 69.789 125.329 69.789C123.145 69.789 121.411 68.0544 121.411 65.8705C121.411 63.6866 123.145 61.9327 125.329 61.9327ZM125.329 69.0208C127.064 69.0208 128.494 67.6003 128.494 65.8657C128.494 64.1311 127.064 62.6913 125.329 62.6913C123.595 62.6913 122.174 64.1311 122.174 65.8657C122.174 67.6051 123.595 69.0208 125.329 69.0208Z" fill="#B0BBC3"/>
<path d="M131.47 62.126C131.47 62.0148 131.567 61.9279 131.678 61.9279H131.949L136.867 68.0593C136.877 68.0593 136.877 68.0593 136.892 68.0593V62.2419C136.892 62.1308 136.979 62.0342 137.099 62.0342H137.481C137.592 62.0342 137.689 62.1308 137.689 62.2419V69.5861C137.689 69.6972 137.592 69.7842 137.481 69.7842H137.283L132.277 63.532H132.268V69.4653C132.268 69.5764 132.181 69.6731 132.06 69.6731H131.678C131.567 69.6731 131.47 69.5764 131.47 69.4653V62.126Z" fill="#B0BBC3"/>
<path d="M139.974 68.5328C140.027 68.4699 140.085 68.3926 140.138 68.325C140.25 68.1849 140.37 68.0979 140.52 68.2284C140.597 68.2912 141.395 69.0594 142.366 69.0594C143.25 69.0594 143.83 68.5038 143.83 67.8612C143.83 67.1074 143.178 66.6629 141.921 66.1362C140.723 65.6096 139.998 65.1216 139.998 63.8798C139.998 63.1358 140.588 61.9375 142.322 61.9375C143.39 61.9375 144.187 62.4931 144.187 62.4931C144.255 62.527 144.386 62.6574 144.255 62.8652C144.212 62.9328 144.168 63.0053 144.125 63.0729C144.028 63.2276 143.917 63.271 143.743 63.1696C143.666 63.1261 142.98 62.6671 142.313 62.6671C141.158 62.6671 140.805 63.4112 140.805 63.8653C140.805 64.5949 141.361 65.0201 142.279 65.4018C143.753 66.001 144.7 66.5566 144.7 67.8225C144.7 68.958 143.617 69.7842 142.342 69.7842C141.056 69.7842 140.182 69.0304 140.037 68.9C139.95 68.8275 139.839 68.7405 139.974 68.5328Z" fill="#B0BBC3"/>
<path d="M66.7402 5.5661C67.4263 5.35834 67.7694 5.63375 67.7694 6.32468V15.9446H75.4035C75.9543 15.9446 76.2973 16.2876 76.2973 16.8384V19.2446C76.2973 19.7954 75.9543 20.0709 75.4035 20.0709H67.7694V45.2343C67.7694 48.3266 68.5956 49.0852 72.2387 49.0852H75.8818C76.5679 49.0852 76.8433 49.293 76.8433 49.9114V52.2499C76.8433 52.7331 76.5679 53.0037 76.0171 53.1438C74.8478 53.4192 72.7847 53.4869 72.3063 53.4869C67.5616 53.4869 62.7492 53.1438 62.7492 46.2683V20.0709H58.8984C58.2799 20.0709 58.0045 19.7954 58.0045 19.2446V16.8384C58.0045 16.2876 58.2799 15.9446 58.8984 15.9446H62.7492V7.21371C62.7492 6.73054 63.0246 6.45997 63.503 6.31985L66.7402 5.5661Z" fill="#B0BBC3"/>
<path d="M144.018 16.0847C144.569 16.1524 144.845 16.4954 144.845 16.9786V19.1094C144.845 19.7278 144.569 20.0032 143.951 20.0032H131.437C128.344 20.0032 125.455 20.9647 125.455 24.1295V25.2311C125.455 27.5697 126.349 29.2897 130.06 30.8021L139.752 34.7206C145.734 37.1267 146.284 40.3591 146.284 43.9346V44.7608C146.284 52.047 142.298 53.4917 132.809 53.4917C127.856 53.4917 121.947 53.081 120.846 52.9409C120.159 52.8732 120.019 52.5302 120.019 52.1147V49.9839C120.019 49.3654 120.295 49.09 120.846 49.09H132.944C139.336 49.09 141.332 48.2638 141.332 44.7608V43.867C141.332 41.5961 140.506 40.0837 137.206 38.7115L126.895 34.5853C121.667 32.4545 120.502 28.879 120.502 25.1635V23.6511C120.502 16.2248 127.31 15.6064 133.36 15.6064C136.041 15.6015 140.443 15.6692 144.018 16.0847Z" fill="#B0BBC3"/>
<path d="M17.5584 49.0852H13.9153C10.2722 49.0852 9.44596 48.3314 9.44596 45.2343V35.9623V11.4269V6.31984C9.44596 5.63374 9.10291 5.35833 8.41681 5.56126L5.18441 6.31984C4.70124 6.45513 4.43066 6.73053 4.43066 7.2137V11.4221V30.7924V35.9575V46.2586C4.43066 53.1341 9.24303 53.4772 13.9878 53.4772C14.4709 53.4772 16.5292 53.4095 17.6985 53.1341C18.2493 52.9989 18.5247 52.7234 18.5247 52.2403V49.9017C18.5199 49.2929 18.2445 49.0852 17.5584 49.0852Z" fill="#B0BBC3"/>
</svg>
