<svg width="142" height="32" viewBox="0 0 142 32" fill="none" xmlns="http://www.w3.org/2000/svg">
<path d="M29.1687 28.2797C28.181 28.693 27.3104 29.3719 26.1861 29.3723C25.1462 29.3726 24.1743 28.8776 23.2887 28.391C21.5463 27.4335 19.6694 26.2697 18.1758 24.9563C20.2149 24.4719 22.2336 22.8232 23.5079 21.2212C25.0101 19.3328 26.0736 17.1336 26.4162 14.7303C27.3248 8.35663 22.9077 2.09495 16.7271 0.465556C7.49149 -1.96923 -1.87007 6.26861 0.322949 15.8381C0.722273 17.5807 1.52023 19.166 2.55646 20.6103C3.58622 22.0456 5.05251 23.2818 6.58634 24.1465C7.91132 24.8934 9.41214 25.5183 10.9324 25.7076C12.5176 25.9049 14.1242 25.7501 15.6193 26.3923C18.7663 27.744 21.0724 30.723 24.4818 31.5712C25.9849 31.9451 27.5879 31.7189 28.9982 31.1247C29.3833 30.9625 30.2927 30.6451 30.3402 30.1532C30.3929 29.6071 29.4663 28.7173 29.1687 28.2797ZM92.5692 0.0525587C90.7224 0.601219 91.425 3.24865 93.2513 2.70551C94.8676 2.22484 94.0984 -0.401721 92.5692 0.0525587ZM122.992 0.0607103C121.035 0.388812 121.668 3.0886 123.588 2.69111C125.163 2.36515 124.53 -0.197087 122.992 0.0607103ZM85.4114 22.9963C82.8901 22.6704 83.0254 20.5783 83.0254 18.5651V5.18612V1.77747C83.0254 1.44682 83.1453 0.807191 82.8887 0.55064C82.6557 0.317666 82.1309 0.414005 81.8323 0.414005C81.5487 0.414005 81.0129 0.313869 80.7759 0.501588C80.5357 0.691894 80.6393 1.25332 80.6393 1.52182V4.41917V15.9234C80.6393 17.8111 80.3621 19.9496 80.7246 21.8033C81.0377 23.4047 81.9418 24.609 83.5367 25.1008C83.9136 25.217 84.736 25.498 85.0925 25.2096C85.4395 24.9288 85.4102 23.4375 85.4114 22.9963ZM13.2332 2.41277C14.4182 2.38572 15.693 2.60647 16.8123 2.98496C23.9085 5.38459 26.2529 14.3476 21.342 19.9285C20.4063 20.9919 19.2865 21.8542 18.0053 22.466C16.6833 23.0973 15.2133 23.4704 13.7445 23.5064C11.1661 23.5695 8.62748 22.8845 6.58641 21.2537C1.89409 17.5045 1.09821 10.1731 5.39457 5.78257C6.28909 4.86844 7.2972 4.05841 8.4611 3.50901C9.96904 2.79722 11.5694 2.45075 13.2332 2.41277ZM70.0725 23.252C70.0725 23.7536 69.8426 25.0154 70.1601 25.4162C70.3963 25.7144 72.4004 25.6945 72.5775 25.3454C72.7385 25.0283 72.629 24.4522 72.629 24.1041V21.1216V12.3443C72.629 11.16 72.9381 9.48436 72.6019 8.35174C72.4803 7.94212 70.4137 7.89987 70.1601 8.22011C69.8427 8.62086 70.0725 9.88264 70.0725 10.3843C69.3167 10.0915 68.745 9.3815 68.0273 8.99027C66.2109 8.00021 64.2804 7.69441 62.2326 7.83545C61.0606 7.91616 59.8423 8.35572 58.8239 8.92386C53.2797 12.0169 52.4221 19.6864 57.3753 23.7698C58.286 24.5206 59.3168 25.0714 60.443 25.4242C62.7617 26.1506 65.5156 25.931 67.6864 24.8481C68.5547 24.4149 69.2289 23.6891 70.0725 23.252ZM133.303 21.4624C132.837 21.6319 131.37 22.1501 131.242 22.6715C131.171 22.9624 131.46 23.2986 131.623 23.5076C132.151 24.1835 132.808 24.7623 133.559 25.1829C134.983 25.9813 136.898 26.0323 138.416 25.4847C139.3 25.1658 140.087 24.5475 140.701 23.8485C143.025 21.2036 142.09 17.1334 139.012 15.5928C137.569 14.87 134.727 14.3982 134.512 12.4295C134.367 11.1003 135.764 9.89585 137.052 10.2683C137.549 10.4117 137.949 11.1051 138.419 11.1485C138.818 11.1853 140.263 10.0393 140.166 9.61704C139.945 8.65019 138.152 8.0295 137.308 7.90225C134.805 7.52471 132.011 9.2974 131.941 12.0034C131.865 14.9177 134.069 16.1204 136.456 17.1487C137.876 17.7605 139.793 18.741 139.471 20.6103C139.158 22.4278 137.329 23.9691 135.433 23.3411C134.444 23.0132 133.867 22.2983 133.303 21.4624ZM32.6625 8.08347V16.0938C32.6625 17.5743 32.4746 19.1815 32.9258 20.6103C34.6051 25.9281 40.6623 27.0949 44.9337 24.1893C45.0129 24.5222 44.8973 25.152 45.1065 25.4162C45.3275 25.6953 47.2667 25.6953 47.4878 25.4162C47.6645 25.1931 47.5754 24.711 47.5754 24.445V21.8885V12.0034V9.2765C47.5754 8.99289 47.6755 8.45712 47.4878 8.22011C47.1737 7.82359 45.5049 8.08347 45.0189 8.08347V14.8156C45.0189 16.8765 45.405 19.2922 44.2561 21.1216C42.2632 24.2948 37.558 24.0887 35.7452 20.8659C35.0511 19.632 35.219 18.221 35.219 16.8607V11.2365C35.219 10.3383 35.3572 9.31437 35.2064 8.42933C35.0995 7.80202 33.1725 8.08347 32.6625 8.08347ZM93.933 25.5528C94.1416 24.8472 94.0183 23.9854 94.0183 23.252V18.7355V14.0486V10.1287C94.0183 9.59064 94.1447 8.86894 93.9912 8.35174C93.8706 7.94553 91.9681 7.90653 91.7198 8.22011C91.5214 8.47064 91.6322 9.06081 91.6322 9.36171V12.2591V21.6329V24.2746C91.6322 24.5858 91.5429 25.0693 91.6836 25.3553C91.9211 25.8379 93.4732 25.4796 93.933 25.5528ZM100.836 8.08347C100.93 9.5635 101.892 11.2999 102.419 12.6851C103.569 15.7094 104.628 18.7691 105.751 21.8033C106.076 22.6828 106.382 23.5719 106.724 24.445C106.833 24.724 106.915 25.203 107.178 25.38C107.567 25.6418 108.474 25.4676 108.931 25.4676C109.202 24.1686 109.863 22.8853 110.307 21.6329C111.327 18.7538 112.4 15.8937 113.452 13.026C113.837 11.9754 114.207 10.9174 114.608 9.87301C114.77 9.45067 115.156 8.81448 115.099 8.35174C115.047 7.92252 112.952 7.95877 112.636 8.17105C111.974 8.61488 111.747 10.3489 111.451 11.066C110.601 13.1285 109.915 15.2761 109.147 17.372C108.799 18.32 108.569 19.581 107.909 20.3546C107.027 17.3099 105.756 14.2798 104.614 11.3217C104.331 10.5875 104.076 9.84165 103.796 9.10607C103.687 8.81998 103.63 8.36553 103.356 8.18394C102.819 7.8271 101.469 8.08347 100.836 8.08347ZM121.969 25.4676H124.355V13.1112V9.70258C124.355 9.31262 124.483 8.64479 124.304 8.29086C124.114 7.91754 122.596 8.00417 122.237 8.11056C121.857 8.22364 121.969 8.80134 121.969 9.10607V12.2591V25.4676ZM62.403 10.2395C68.0309 9.4372 72.3032 16.006 68.8433 20.6921C68.3504 21.3597 67.7096 21.9567 67.0047 22.3942C66.1716 22.9113 65.2476 23.2467 64.2778 23.3859C58.6005 24.2011 54.6925 17.8196 57.7754 13.1112C58.2482 12.3892 58.9465 11.7044 59.6773 11.242C60.4971 10.7233 61.4414 10.3765 62.403 10.2395Z" fill="url(#paint0_linear_1_4)"/>
<defs>
<linearGradient id="paint0_linear_1_4" x1="-7" y1="15" x2="158" y2="16" gradientUnits="userSpaceOnUse">
<stop offset="0.0244887" stop-color="#53AD9F"/>
<stop offset="1" stop-color="#94C626"/>
</linearGradient>
</defs>
</svg>
