<svg width="34" height="34" viewBox="0 0 34 34" fill="none" xmlns="http://www.w3.org/2000/svg">
    <path fill-rule="evenodd" clip-rule="evenodd" d="M7.42466 0.000183105H0V7.42469C0 11.5251 3.32392 14.8491 7.42466 14.8491C11.5248 14.8491 14.8488 11.5251 14.8488 7.42469C14.8488 3.32424 11.5248 0.000183105 7.42466 0.000183105ZM19.1512 7.42469V14.8491H26.5759C30.6761 14.8491 34 11.5251 34 7.42469C34 3.32424 30.6761 0.000183105 26.5759 0.000183105C22.4752 0.000183105 19.1512 3.32424 19.1512 7.42469ZM19.1506 19.1511H26.5753C30.6755 19.1511 34 22.4751 34 26.5756C34 30.676 30.6755 34 26.5753 34C22.4752 34 19.1506 30.676 19.1506 26.5756V19.1511ZM14.8494 26.5756V19.1511H7.42466C3.32449 19.1511 0 22.4751 0 26.5756C0 30.676 3.32449 34 7.42466 34C11.5254 34 14.8494 30.676 14.8494 26.5756Z" fill="#F15E22"/>
</svg>
